AmstelvariItalic-opsz144-weight100-width50.ufo
<glyph name="parenright" format="2">
  <advance width="598"/>
  <unicode hex="0029"/>
  <outline>
    <contour>
      <point x="397.6619718309859" y="685.6338028169014" type="qcurve" smooth="yes"/>
      <point x="351.67605633802816" y="450.28169014084506"/>
      <point x="53.760563380281695" y="-22.774647887323944"/>
      <point x="-155.5774647887324" y="-166.77464788732394" type="qcurve"/>
      <point x="-159.19718309859155" y="-163.56338028169014" type="line"/>
      <point x="36.88732394366197" y="5.12676056338028"/>
      <point x="294.32394366197184" y="442.2957746478873"/>
      <point x="342.6619718309859" y="683.6338028169014" type="qcurve" smooth="yes"/>
      <point x="390.6619718309859" y="937.2957746478874"/>
      <point x="312.2535211267606" y="1396.8309859154929"/>
      <point x="177.4788732394366" y="1537.4929577464789" type="qcurve"/>
      <point x="179.42253521126761" y="1543.394366197183" type="line"/>
      <point x="333.4225352112676" y="1394.394366197183"/>
      <point x="450.3380281690141" y="978.1267605633802"/>
    </contour>
  </outline>
</glyph>
<glyph name="period" format="2">
  <advance width="330"/>
  <unicode hex="002E"/>
  <outline>
    <contour>
      <point x="96.0" y="35.0" type="qcurve" smooth="yes"/>
      <point x="96.0" y="56.0"/>
      <point x="126.0" y="88.0"/>
      <point x="151.0" y="88.0" type="qcurve" smooth="yes"/>
      <point x="175.0" y="88.0"/>
      <point x="206.0" y="56.0"/>
      <point x="206.0" y="35.0" type="qcurve" smooth="yes"/>
      <point x="206.0" y="11.0"/>
      <point x="175.0" y="-21.0"/>
      <point x="151.0" y="-21.0" type="qcurve" smooth="yes"/>
      <point x="126.0" y="-21.0"/>
      <point x="96.0" y="11.0"/>
    </contour>
  </outline>
</glyph>
<glyph name="slash" format="2">
  <advance width="369"/>
  <unicode hex="002F"/>
  <outline>
    <contour>
      <point x="-84.47887323943662" y="-127.63380281690141" type="line"/>
      <point x="527.0" y="1544.0" type="line"/>
      <point x="553.0" y="1536.0" type="line"/>
      <point x="-58.0" y="-134.0" type="line"/>
    </contour>
  </outline>
</glyph>
<glyph name="zero" format="2">
  <advance width="824"/>
  <unicode hex="0030"/>
  <outline>
    <contour>
      <point x="177.0" y="885.0" type="qcurve" smooth="yes"/>
      <point x="264.0" y="1214.0"/>
      <point x="511.0" y="1538.0"/>
      <point x="694.0" y="1506.0" type="qcurve" smooth="yes"/>
      <point x="843.0" y="1473.0"/>
      <point x="922.0" y="997.0"/>
      <point x="852.0" y="697.0" type="qcurve" smooth="yes"/>
      <point x="775.0" y="376.0"/>
      <point x="509.0" y="-15.0"/>
      <point x="320.0" y="13.0" type="qcurve" smooth="yes"/>
      <point x="168.0" y="42.0"/>
      <point x="87.0" y="540.0"/>
    </contour>
    <contour>
      <point x="223.0" y="868.0" type="qcurve" smooth="yes"/>
      <point x="144.0" y="522.0"/>
      <point x="215.0" y="87.0"/>
      <point x="359.0" y="64.0" type="qcurve" smooth="yes"/>
      <point x="511.0" y="39.0"/>
      <point x="733.0" y="408.0"/>
      <point x="806.0" y="735.0" type="qcurve" smooth="yes"/>
      <point x="878.0" y="1071.0"/>
      <point x="804.0" y="1461.0"/>
      <point x="662.0" y="1485.0" type="qcurve" smooth="yes"/>
      <point x="518.0" y="1509.0"/>
      <point x="298.0" y="1198.0"/>
    </contour>
  </outline>
</glyph>
<glyph name="three" format="2">
  <advance width="800"/>
  <unicode hex="0033"/>
  <outline>
    <contour>
      <point x="70.0" y="253.0" type="qcurve" smooth="yes"/>
      <point x="72.0" y="281.0"/>
      <point x="106.0" y="337.0"/>
      <point x="113.0" y="337.0" type="qcurve"/>
      <point x="121.0" y="336.0" type="line"/>
      <point x="116.0" y="299.0"/>
      <point x="113.0" y="248.0"/>
      <point x="114.0" y="199.0" type="qcurve" smooth="yes"/>
      <point x="121.0" y="137.0"/>
      <point x="208.0" y="37.0"/>
      <point x="355.0" y="37.0" type="qcurve" smooth="yes"/>
      <point x="490.0" y="37.0"/>
      <point x="674.0" y="254.0"/>
      <point x="690.0" y="447.0" type="qcurve" smooth="yes"/>
      <point x="704.0" y="634.0"/>
      <point x="556.0" y="828.0"/>
      <point x="418.0" y="820.0" type="qcurve" smooth="yes"/>
      <point x="316.0" y="820.0" type="line"/>
      <point x="318.0" y="833.0" type="line"/>
      <point x="393.0" y="833.0" type="line" smooth="yes"/>
      <point x="560.0" y="833.0"/>
      <point x="757.0" y="1046.0"/>
      <point x="767.0" y="1206.0" type="qcurve" smooth="yes"/>
      <point x="773.0" y="1325.0"/>
      <point x="659.0" y="1455.0"/>
      <point x="547.0" y="1455.0" type="qcurve" smooth="yes"/>
      <point x="461.0" y="1455.0"/>
      <point x="326.0" y="1362.0"/>
      <point x="256.0" y="1249.0" type="qcurve"/>
      <point x="252.0" y="1257.0" type="line"/>
      <point x="299.0" y="1367.0"/>
      <point x="415.0" y="1502.0"/>
      <point x="544.0" y="1502.0" type="qcurve" smooth="yes"/>
      <point x="693.0" y="1502.0"/>
      <point x="828.0" y="1367.0"/>
      <point x="819.0" y="1236.0" type="qcurve" smooth="yes"/>
      <point x="811.0" y="1087.0"/>
      <point x="640.0" y="883.0"/>
      <point x="478.0" y="834.0" type="qcurve"/>
      <point x="476.0" y="827.0" type="line"/>
      <point x="635.0" y="797.0"/>
      <point x="756.0" y="587.0"/>
      <point x="748.0" y="443.0" type="qcurve" smooth="yes"/>
      <point x="736.0" y="259.0"/>
      <point x="523.0" y="18.0"/>
      <point x="361.0" y="18.0" type="qcurve" smooth="yes"/>
      <point x="206.0" y="18.0"/>
      <point x="68.0" y="166.0"/>
    </contour>
  </outline>
</glyph>
<glyph name="six" format="2">
  <advance width="738"/>
  <unicode hex="0036"/>
  <outline>
    <contour>
      <point x="97.0" y="471.0" type="qcurve" smooth="yes"/>
      <point x="161.0" y="899.0"/>
      <point x="636.0" y="1457.0"/>
      <point x="893.0" y="1551.0" type="qcurve"/>
      <point x="881.0" y="1525.0" type="line"/>
      <point x="627.0" y="1411.0"/>
      <point x="217.0" y="829.0"/>
      <point x="153.0" y="446.0" type="qcurve" smooth="yes"/>
      <point x="124.0" y="229.0"/>
      <point x="238.0" y="19.0"/>
      <point x="318.0" y="19.0" type="qcurve" smooth="yes"/>
      <point x="441.0" y="19.0"/>
      <point x="673.0" y="331.0"/>
      <point x="713.0" y="510.0" type="qcurve" smooth="yes"/>
      <point x="739.0" y="680.0"/>
      <point x="616.0" y="831.0"/>
      <point x="514.0" y="831.0" type="qcurve" smooth="yes"/>
      <point x="464.0" y="831.0"/>
      <point x="401.0" y="803.0"/>
      <point x="366.0" y="783.0" type="qcurve"/>
      <point x="367.0" y="795.0" type="line"/>
      <point x="408.0" y="823.0"/>
      <point x="567.0" y="885.0"/>
      <point x="573.0" y="886.0" type="qcurve" smooth="yes"/>
      <point x="662.0" y="888.0"/>
      <point x="770.0" y="696.0"/>
      <point x="745.0" y="509.0" type="qcurve" smooth="yes"/>
      <point x="713.0" y="283.0"/>
      <point x="475.0" y="-1.0"/>
      <point x="325.0" y="-1.0" type="qcurve" smooth="yes"/>
      <point x="218.0" y="-1.0"/>
      <point x="58.0" y="219.0"/>
    </contour>
  </outline>
</glyph>
<glyph name="semicolon" format="2">
  <advance width="264"/>
  <unicode hex="003B"/>
  <outline>
    <contour>
      <point x="82.0" y="734.0" type="qcurve" smooth="yes"/>
      <point x="82.0" y="755.0"/>
      <point x="112.0" y="787.0"/>
      <point x="137.0" y="787.0" type="qcurve" smooth="yes"/>
      <point x="161.0" y="787.0"/>
      <point x="192.0" y="755.0"/>
      <point x="192.0" y="734.0" type="qcurve" smooth="yes"/>
      <point x="192.0" y="710.0"/>
      <point x="161.0" y="678.0"/>
      <point x="137.0" y="678.0" type="qcurve" smooth="yes"/>
      <point x="112.0" y="678.0"/>
      <point x="82.0" y="710.0"/>
    </contour>
    <contour>
      <point x="-28.0" y="-201.0" type="line"/>
      <point x="15.0" y="-176.0"/>
      <point x="87.0" y="-70.0"/>
      <point x="107.0" y="-25.0" type="qcurve"/>
      <point x="68.0" y="-28.0"/>
      <point x="29.0" y="0.0"/>
      <point x="29.0" y="37.0" type="qcurve" smooth="yes"/>
      <point x="29.0" y="59.0"/>
      <point x="53.0" y="97.0"/>
      <point x="81.0" y="97.0" type="qcurve" smooth="yes"/>
      <point x="109.0" y="97.0"/>
      <point x="140.0" y="82.0"/>
      <point x="140.0" y="38.0" type="qcurve" smooth="yes"/>
      <point x="140.0" y="-19.0"/>
      <point x="39.0" y="-168.0"/>
      <point x="-27.0" y="-204.0" type="qcurve"/>
    </contour>
  </outline>
</glyph>
<glyph name="less" format="2">
  <advance width="685"/>
  <unicode hex="003C"/>
  <outline>
    <contour>
      <point x="155.0" y="564.0" type="qcurve"/>
      <point x="124.0" y="558.0"/>
      <point x="569.0" y="887.0"/>
      <point x="631.0" y="929.0" type="qcurve" smooth="yes"/>
      <point x="625.0" y="932.0"/>
      <point x="647.0" y="898.0"/>
      <point x="652.0" y="895.0" type="qcurve" smooth="yes"/>
      <point x="560.0" y="824.0"/>
      <point x="183.0" y="580.0"/>
      <point x="203.0" y="574.0" type="qcurve"/>
      <point x="187.0" y="566.0"/>
      <point x="558.0" y="317.0"/>
      <point x="635.0" y="262.0" type="qcurve"/>
      <point x="633.0" y="261.0"/>
      <point x="613.0" y="233.0"/>
      <point x="620.0" y="236.0" type="qcurve" smooth="yes"/>
      <point x="536.0" y="283.0"/>
      <point x="161.0" y="553.0"/>
    </contour>
  </outline>
</glyph>
<glyph name="equal" format="2">
  <advance width="685"/>
  <unicode hex="003D"/>
  <outline>
    <contour>
      <point x="127.0" y="530.0" type="line"/>
      <point x="127.0" y="520.0" type="line"/>
      <point x="387.0" y="517.0" type="line"/>
      <point x="650.0" y="520.0" type="line"/>
      <point x="650.0" y="530.0" type="line"/>
      <point x="387.0" y="533.0" type="line"/>
    </contour>
    <contour>
      <point x="127.0" y="703.0" type="line"/>
      <point x="127.0" y="693.0" type="line"/>
      <point x="387.0" y="690.0" type="line"/>
      <point x="650.0" y="693.0" type="line"/>
      <point x="650.0" y="703.0" type="line"/>
      <point x="387.0" y="706.0" type="line"/>
    </contour>
  </outline>
</glyph>
<glyph name="question" format="2">
  <advance width="906"/>
  <unicode hex="003F"/>
  <outline>
    <contour>
      <point x="234.0" y="1324.0" type="qcurve" smooth="yes"/>
      <point x="238.0" y="1386.0"/>
      <point x="392.0" y="1521.0"/>
      <point x="541.0" y="1521.0" type="qcurve" smooth="yes"/>
      <point x="676.0" y="1521.0"/>
      <point x="803.0" y="1328.0"/>
      <point x="804.0" y="1203.0" type="qcurve" smooth="yes"/>
      <point x="805.0" y="1081.0"/>
      <point x="702.0" y="883.0"/>
      <point x="562.0" y="795.0" type="qcurve" smooth="yes"/>
      <point x="414.0" y="706.0"/>
      <point x="293.0" y="577.0"/>
      <point x="272.0" y="503.0" type="qcurve" smooth="yes"/>
      <point x="248.0" y="406.0" type="line"/>
      <point x="241.0" y="406.0" type="line"/>
      <point x="259.0" y="502.0" type="line" smooth="yes"/>
      <point x="274.0" y="595.0"/>
      <point x="359.0" y="735.0"/>
      <point x="544.0" y="862.0" type="qcurve" smooth="yes"/>
      <point x="657.0" y="942.0"/>
      <point x="765.0" y="1103.0"/>
      <point x="765.0" y="1211.0" type="qcurve" smooth="yes"/>
      <point x="765.0" y="1330.0"/>
      <point x="641.0" y="1506.0"/>
      <point x="516.0" y="1506.0" type="qcurve" smooth="yes"/>
      <point x="424.0" y="1506.0"/>
      <point x="309.0" y="1427.0"/>
      <point x="301.0" y="1356.0" type="qcurve" smooth="yes"/>
      <point x="300.0" y="1338.0"/>
      <point x="311.0" y="1296.0"/>
      <point x="324.0" y="1271.0" type="qcurve" smooth="yes"/>
      <point x="333.0" y="1248.0"/>
      <point x="310.0" y="1218.0"/>
      <point x="283.0" y="1218.0" type="qcurve" smooth="yes"/>
      <point x="269.0" y="1218.0"/>
      <point x="231.0" y="1273.0"/>
    </contour>
    <contour>
      <point x="158.0" y="39.0" type="qcurve" smooth="yes"/>
      <point x="162.0" y="72.0"/>
      <point x="187.0" y="100.0"/>
      <point x="214.0" y="100.0" type="qcurve" smooth="yes"/>
      <point x="236.0" y="100.0"/>
      <point x="253.0" y="68.0"/>
      <point x="246.0" y="39.0" type="qcurve" smooth="yes"/>
      <point x="242.0" y="3.0"/>
      <point x="217.0" y="-22.0"/>
      <point x="189.0" y="-22.0" type="qcurve" smooth="yes"/>
      <point x="168.0" y="-22.0"/>
      <point x="152.0" y="7.0"/>
    </contour>
  </outline>
</glyph>
<glyph name="B" format="2">
  <advance width="759"/>
  <unicode hex="0042"/>
  <outline>
    <contour>
      <point x="-77.0" y="0.0" type="line"/>
      <point x="-80.0" y="17.0" type="line"/>
      <point x="16.0" y="36.0" type="line"/>
      <point x="180.0" y="781.0" type="line"/>
      <point x="327.0" y="1458.0" type="line"/>
      <point x="201.0" y="1484.0" type="line"/>
      <point x="203.0" y="1500.0" type="line"/>
      <point x="457.0" y="1500.0" type="line" smooth="yes"/>
      <point x="644" y="1500"/>
      <point x="778.0" y="1316.0"/>
      <point x="753.0" y="1175.0" type="qcurve" smooth="yes"/>
      <point x="728.0" y="1032.0"/>
      <point x="597.0" y="835.0"/>
      <point x="471.0" y="798.0" type="qcurve"/>
      <point x="469.0" y="795.0" type="line"/>
      <point x="587" y="769"/>
      <point x="697" y="577"/>
      <point x="665.0" y="404.0" type="qcurve" smooth="yes"/>
      <point x="628" y="203"/>
      <point x="402.0" y="0.0"/>
      <point x="177.0" y="0.0" type="qcurve" smooth="yes"/>
    </contour>
    <contour>
      <point x="95.0" y="46.0" type="line"/>
      <point x="97.0" y="25.0" type="line"/>
      <point x="192.0" y="25.0" type="line" smooth="yes"/>
      <point x="361.0" y="25.0"/>
      <point x="551.0" y="217.0"/>
      <point x="590.0" y="416.0" type="qcurve" smooth="yes"/>
      <point x="624" y="589"/>
      <point x="508.0" y="783.0"/>
      <point x="378.0" y="783.0" type="qcurve" smooth="yes"/>
      <point x="257.0" y="783.0" type="line"/>
      <point x="250.0" y="756.0" type="line"/>
    </contour>
    <contour>
      <point x="267.0" y="831.0" type="line"/>
      <point x="262.0" y="812.0" type="line"/>
      <point x="395.0" y="812.0" type="line" smooth="yes"/>
      <point x="507.0" y="812.0"/>
      <point x="653" y="1028"/>
      <point x="682.0" y="1197.0" type="qcurve" smooth="yes"/>
      <point x="709.0" y="1352.0"/>
      <point x="594.0" y="1474.0"/>
      <point x="490.0" y="1474.0" type="qcurve" smooth="yes"/>
      <point x="435.0" y="1474.0" type="line"/>
      <point x="402.0" y="1460.0" type="line"/>
    </contour>
  </outline>
</glyph>
<glyph name="C" format="2">
  <advance width="670"/>
  <unicode hex="0043"/>
  <outline>
    <contour>
      <point x="46" y="757" type="qcurve" smooth="yes"/>
      <point x="127" y="1154"/>
      <point x="401" y="1523"/>
      <point x="588" y="1517" type="qcurve" smooth="yes"/>
      <point x="652" y="1512"/>
      <point x="734" y="1445"/>
      <point x="750" y="1413" type="qcurve"/>
      <point x="788" y="1471" type="line"/>
      <point x="808" y="1463" type="line"/>
      <point x="717" y="1102" type="line"/>
      <point x="702" y="1102" type="line"/>
      <point x="719" y="1298" type="line" smooth="yes"/>
      <point x="726" y="1376"/>
      <point x="672" y="1483"/>
      <point x="586" y="1487" type="qcurve" smooth="yes"/>
      <point x="416" y="1491"/>
      <point x="206" y="1139"/>
      <point x="129" y="754" type="qcurve" smooth="yes"/>
      <point x="55" y="383"/>
      <point x="96" y="39"/>
      <point x="205" y="14" type="qcurve" smooth="yes"/>
      <point x="341" y="-18"/>
      <point x="522" y="220"/>
      <point x="558" y="371" type="qcurve"/>
      <point x="569" y="369" type="line"/>
      <point x="575" y="360" type="line"/>
      <point x="539" y="189"/>
      <point x="327" y="-40"/>
      <point x="195" y="-12" type="qcurve" smooth="yes"/>
      <point x="70" y="15"/>
      <point x="-33" y="372"/>
    </contour>
  </outline>
</glyph>
<glyph name="O" format="2">
  <advance width="817"/>
  <unicode hex="004F"/>
  <outline>
    <contour>
      <point x="58" y="803" type="qcurve" smooth="yes"/>
      <point x="126" y="1136"/>
      <point x="468" y="1536"/>
      <point x="616.0" y="1506.0" type="qcurve" smooth="yes"/>
      <point x="759.0" y="1477.0"/>
      <point x="818.0" y="1073.0"/>
      <point x="750.0" y="740.0" type="qcurve" smooth="yes"/>
      <point x="669.0" y="353.0"/>
      <point x="346" y="-32"/>
      <point x="209.0" y="-15.0" type="qcurve" smooth="yes"/>
      <point x="79.0" y="1.0"/>
      <point x="-14" y="449"/>
    </contour>
    <contour>
      <point x="145.0" y="799.0" type="qcurve" smooth="yes"/>
      <point x="68.0" y="433.0"/>
      <point x="104.0" y="15.0"/>
      <point x="218.0" y="1.0" type="qcurve" smooth="yes"/>
      <point x="356" y="-16"/>
      <point x="597.0" y="402.0"/>
      <point x="671.0" y="755.0" type="qcurve" smooth="yes"/>
      <point x="741.0" y="1091.0"/>
      <point x="733.0" y="1469.0"/>
      <point x="610.0" y="1493.0" type="qcurve" smooth="yes"/>
      <point x="477" y="1519"/>
      <point x="219" y="1150"/>
    </contour>
  </outline>
</glyph>
<glyph name="R" format="2">
  <advance width="840"/>
  <unicode hex="0052"/>
  <outline>
    <contour>
      <point x="-63" y="0" type="line"/>
      <point x="-75" y="16" type="line"/>
      <point x="21" y="36" type="line"/>
      <point x="188" y="796" type="line"/>
      <point x="314" y="1457" type="line"/>
      <point x="196" y="1484" type="line"/>
      <point x="199" y="1500" type="line"/>
      <point x="509" y="1500" type="line" smooth="yes"/>
      <point x="658" y="1500"/>
      <point x="809" y="1322"/>
      <point x="782" y="1141" type="qcurve" smooth="yes"/>
      <point x="755" y="962"/>
      <point x="550" y="771"/>
      <point x="393" y="771" type="qcurve" smooth="yes"/>
      <point x="334" y="771"/>
      <point x="276" y="774"/>
      <point x="230" y="778" type="qcurve"/>
      <point x="234" y="796" type="line"/>
      <point x="309" y="796" type="line"/>
      <point x="363" y="796" type="line" smooth="yes"/>
      <point x="517" y="796"/>
      <point x="692" y="1005"/>
      <point x="711" y="1151" type="qcurve" smooth="yes"/>
      <point x="736" y="1343"/>
      <point x="605.0" y="1474.0"/>
      <point x="473" y="1474" type="qcurve" smooth="yes"/>
      <point x="407" y="1474" type="line"/>
      <point x="390" y="1457" type="line"/>
      <point x="245" y="757" type="line"/>
      <point x="97" y="36" type="line"/>
      <point x="228" y="16" type="line"/>
      <point x="225" y="0" type="line"/>
    </contour>
    <contour>
      <point x="428" y="786" type="line"/>
      <point x="497" y="811" type="line"/>
      <point x="509" y="716" type="line" smooth="yes"/>
      <point x="561" y="308"/>
      <point x="615" y="32"/>
      <point x="762" y="17" type="qcurve"/>
      <point x="762" y="0" type="line"/>
      <point x="750" y="0" type="line" smooth="yes"/>
      <point x="586" y="0"/>
      <point x="479" y="251"/>
      <point x="438" y="682" type="qcurve" smooth="yes"/>
    </contour>
  </outline>
</glyph>
<glyph name="W" format="2">
  <advance width="1439"/>
  <unicode hex="0057"/>
  <outline>
    <contour>
      <point x="155.0" y="1484.0" type="line"/>
      <point x="152.0" y="1500.0" type="line"/>
      <point x="518.0" y="1500.0" type="line"/>
      <point x="522.0" y="1483.0" type="line"/>
      <point x="370.0" y="1453.0" type="line"/>
      <point x="432.0" y="796.0" type="line"/>
      <point x="496.0" y="148.0" type="line"/>
      <point x="503.0" y="147.0" type="line"/>
      <point x="653.0" y="638.0" type="line"/>
      <point x="778.0" y="1121.0" type="line"/>
      <point x="780.0" y="1057.0" type="line"/>
      <point x="667.0" y="629.0" type="line"/>
      <point x="496.0" y="-3.0" type="line"/>
      <point x="438.0" y="-3.0" type="line"/>
      <point x="356.0" y="845.0" type="line"/>
      <point x="291.0" y="1453.0" type="line"/>
    </contour>
    <contour>
      <point x="581.0" y="1477.0" type="line"/>
      <point x="578.0" y="1500.0" type="line"/>
      <point x="930.0" y="1500.0" type="line"/>
      <point x="933.0" y="1483.0" type="line"/>
      <point x="782.0" y="1452.0" type="line"/>
      <point x="820.0" y="796.0" type="line"/>
      <point x="848.0" y="134.0" type="line"/>
      <point x="851.0" y="133.0" type="line"/>
      <point x="1125.0" y="801.0" type="line"/>
      <point x="1387.0" y="1439.0" type="line"/>
      <point x="1232.0" y="1485.0" type="line"/>
      <point x="1233.0" y="1500.0" type="line"/>
      <point x="1591.0" y="1500.0" type="line"/>
      <point x="1591.0" y="1485.0" type="line"/>
      <point x="1402.0" y="1439.0" type="line"/>
      <point x="1133.0" y="789.0" type="line"/>
      <point x="842.0" y="-3.0" type="line"/>
      <point x="785.0" y="-3.0" type="line"/>
      <point x="757.0" y="858.0" type="line"/>
      <point x="721.0" y="1451.0" type="line"/>
    </contour>
  </outline>
</glyph>
<glyph name="X" format="2">
  <advance width="866"/>
  <unicode hex="0058"/>
  <outline>
    <contour>
      <point x="-248.0" y="0.0" type="line"/>
      <point x="-246.0" y="16.0" type="line"/>
      <point x="-73.0" y="36.0" type="line"/>
      <point x="423.0" y="826.0" type="line"/>
      <point x="454.0" y="836.0" type="line"/>
      <point x="830.0" y="1440.0" type="line"/>
      <point x="685.0" y="1484.0" type="line"/>
      <point x="688.0" y="1500.0" type="line"/>
      <point x="1062.0" y="1500.0" type="line"/>
      <point x="1058.0" y="1484.0" type="line"/>
      <point x="866.0" y="1442.0" type="line"/>
      <point x="447.0" y="762.0" type="line"/>
      <point x="416.0" y="752.0" type="line"/>
      <point x="-32.0" y="41.0" type="line"/>
      <point x="151.0" y="16.0" type="line"/>
      <point x="149.0" y="0.0" type="line"/>
    </contour>
    <contour>
      <point x="152.0" y="1484.0" type="line"/>
      <point x="154.0" y="1500.0" type="line"/>
      <point x="477.0" y="1500.0" type="line"/>
      <point x="474.0" y="1484.0" type="line"/>
      <point x="365.0" y="1461.0" type="line"/>
      <point x="472.0" y="846.0" type="line"/>
      <point x="603.0" y="37.0" type="line"/>
      <point x="741.0" y="16.0" type="line"/>
      <point x="738.0" y="0.0" type="line"/>
      <point x="389.0" y="0.0" type="line"/>
      <point x="392.0" y="16.0" type="line"/>
      <point x="527.0" y="36.0" type="line"/>
      <point x="410.0" y="767.0" type="line"/>
      <point x="291.0" y="1461.0" type="line"/>
    </contour>
  </outline>
</glyph>
<glyph name="underscore" format="2">
  <advance width="677"/>
  <unicode hex="005F"/>
  <outline>
    <contour>
      <point x="-169.69014084507043" y="-472.90140845070425" type="line"/>
      <point x="-194.30985915492957" y="-435.85915492957747" type="line"/>
      <point x="99.6901408450704" y="-424.85915492957747" type="line"/>
      <point x="527.6901408450703" y="-435.85915492957747" type="line"/>
      <point x="552.3098591549297" y="-472.90140845070425" type="line"/>
      <point x="124.3098591549296" y="-476.90140845070425" type="line"/>
    </contour>
  </outline>
</glyph>
<glyph name="grave" format="2">
  <advance width="896"/>
  <unicode hex="0060"/>
  <outline>
    <contour>
      <point x="421.0" y="1141.0" type="qcurve" smooth="yes"/>
      <point x="555.0" y="1005.0" type="line"/>
      <point x="564.0" y="1013.0" type="line"/>
      <point x="437.0" y="1153.0" type="line" smooth="yes"/>
      <point x="429.0" y="1163.0"/>
      <point x="399.0" y="1195.0"/>
      <point x="389.0" y="1195.0" type="qcurve" smooth="yes"/>
      <point x="393.0" y="1195.0"/>
      <point x="386.0" y="1191.0"/>
      <point x="386.0" y="1185.0" type="qcurve" smooth="yes"/>
      <point x="386.0" y="1177.0"/>
      <point x="408.0" y="1155.0"/>
    </contour>
  </outline>
</glyph>
<glyph name="c" format="2">
  <advance width="552"/>
  <unicode hex="0063"/>
  <outline>
    <contour>
      <point x="45" y="457" type="qcurve" smooth="yes"/>
      <point x="87" y="670"/>
      <point x="266" y="936"/>
      <point x="388" y="936" type="qcurve" smooth="yes"/>
      <point x="482" y="936"/>
      <point x="554" y="853"/>
      <point x="552" y="804" type="qcurve" smooth="yes"/>
      <point x="550" y="758"/>
      <point x="518" y="699"/>
      <point x="500" y="681" type="qcurve"/>
      <point x="483" y="682" type="line"/>
      <point x="483" y="870" type="line" smooth="yes"/>
      <point x="483" y="897"/>
      <point x="430" y="924"/>
      <point x="394" y="924" type="qcurve" smooth="yes"/>
      <point x="305" y="924"/>
      <point x="145" y="640"/>
      <point x="112" y="455" type="qcurve" smooth="yes"/>
      <point x="75" y="255"/>
      <point x="137" y="10"/>
      <point x="223" y="10" type="qcurve" smooth="yes"/>
      <point x="298" y="10"/>
      <point x="408" y="115"/>
      <point x="449" y="211" type="qcurve"/>
      <point x="458" y="212" type="line"/>
      <point x="458" y="202" type="line"/>
      <point x="416" y="100"/>
      <point x="296" y="-9"/>
      <point x="211" y="-9" type="qcurve" smooth="yes"/>
      <point x="85" y="-9"/>
      <point x="1" y="233"/>
    </contour>
  </outline>
</glyph>
<glyph name="d" format="2">
  <advance width="754"/>
  <unicode hex="0064"/>
  <outline>
    <contour>
      <point x="26.0" y="284.0" type="qcurve" smooth="yes"/>
      <point x="38.0" y="487.0"/>
      <point x="299.0" y="928.0"/>
      <point x="570.0" y="919.0" type="qcurve" smooth="yes"/>
      <point x="647.0" y="919.0" type="line"/>
      <point x="768.0" y="1540.0" type="line"/>
      <point x="582.0" y="1503.0" type="line"/>
      <point x="583.0" y="1507.0" type="line"/>
      <point x="821.0" y="1577.0" type="line"/>
      <point x="812.0" y="1578.0" type="line"/>
      <point x="594.0" y="469.0" type="line"/>
      <point x="517.0" y="58.0" type="line"/>
      <point x="717.0" y="89.0" type="line"/>
      <point x="712.0" y="76.0" type="line"/>
      <point x="519.0" y="-6.0" type="line"/>
      <point x="483.0" y="26.0" type="line"/>
      <point x="488.0" y="232.0" type="line"/>
      <point x="449.0" y="153.0"/>
      <point x="320.0" y="-5.0"/>
      <point x="192.0" y="-5.0" type="qcurve" smooth="yes"/>
      <point x="118.0" y="-5.0"/>
      <point x="19.0" y="103.0"/>
    </contour>
    <contour>
      <point x="85.0" y="267.0" type="qcurve" smooth="yes"/>
      <point x="80.0" y="123.0"/>
      <point x="120.0" y="9.0"/>
      <point x="202.0" y="9.0" type="qcurve" smooth="yes"/>
      <point x="288.0" y="9.0"/>
      <point x="496.0" y="247.0"/>
      <point x="534.0" y="402.0" type="qcurve" smooth="yes"/>
      <point x="617.0" y="837.0" type="line"/>
      <point x="624.0" y="866.0"/>
      <point x="575.0" y="895.0"/>
      <point x="492.0" y="896.0" type="qcurve" smooth="yes"/>
      <point x="293.0" y="902.0"/>
      <point x="97.0" y="473.0"/>
    </contour>
  </outline>
</glyph>
<glyph name="e" format="2">
  <advance width="530"/>
  <unicode hex="0065"/>
  <outline>
    <contour>
      <point x="27.0" y="410.0" type="qcurve" smooth="yes"/>
      <point x="66.0" y="629.0"/>
      <point x="256.0" y="939.0"/>
      <point x="353.0" y="939.0" type="qcurve" smooth="yes"/>
      <point x="413.0" y="939.0"/>
      <point x="493.0" y="839.0"/>
      <point x="491.0" y="746.0" type="qcurve" smooth="yes"/>
      <point x="489.0" y="716.0"/>
      <point x="478.0" y="615.0"/>
      <point x="474.0" y="597.0" type="qcurve"/>
      <point x="516.0" y="583.0" type="line"/>
      <point x="514.0" y="563.0" type="line"/>
      <point x="492.0" y="568.0"/>
      <point x="373.0" y="573.0"/>
      <point x="323.0" y="571.0" type="qcurve" smooth="yes"/>
      <point x="131.0" y="564.0" type="line"/>
      <point x="137.0" y="579.0" type="line"/>
      <point x="428.0" y="595.0" type="line"/>
      <point x="435.0" y="628.0"/>
      <point x="446.0" y="728.0"/>
      <point x="448.0" y="794.0" type="qcurve" smooth="yes"/>
      <point x="451.0" y="854.0"/>
      <point x="416.0" y="929.0"/>
      <point x="340.0" y="929.0" type="qcurve" smooth="yes"/>
      <point x="276.0" y="929.0"/>
      <point x="133.0" y="658.0"/>
      <point x="103.0" y="451.0" type="qcurve" smooth="yes"/>
      <point x="71.0" y="242.0"/>
      <point x="92.0" y="17.0"/>
      <point x="164.0" y="5.0" type="qcurve" smooth="yes"/>
      <point x="248.0" y="-8.0"/>
      <point x="386.0" y="138.0"/>
      <point x="428.0" y="243.0" type="qcurve"/>
      <point x="434.0" y="244.0" type="line"/>
      <point x="445.0" y="238.0" type="line"/>
      <point x="402.0" y="127.0"/>
      <point x="239.0" y="-17.0"/>
      <point x="135.0" y="-4.0" type="qcurve" smooth="yes"/>
      <point x="52.0" y="7.0"/>
      <point x="-9.0" y="204.0"/>
    </contour>
  </outline>
</glyph>
<glyph name="f" format="2">
  <advance width="322"/>
  <unicode hex="0066"/>
  <outline>
    <contour>
      <point x="-428.0" y="-443.0" type="line" smooth="yes"/>
      <point x="-427.0" y="-431.0" type="line"/>
      <point x="-360.0" y="-431.0" type="line" smooth="yes"/>
      <point x="-157.0" y="-431.0"/>
      <point x="-9" y="-158"/>
      <point x="64.0" y="240.0" type="qcurve" smooth="yes"/>
      <point x="177.0" y="854.0" type="line"/>
      <point x="175.0" y="857.0" type="line"/>
      <point x="219.0" y="1107.0" type="line" smooth="yes"/>
      <point x="259" y="1335"/>
      <point x="425.0" y="1549.0"/>
      <point x="507.0" y="1550.0" type="qcurve" smooth="yes"/>
      <point x="569.0" y="1551.0"/>
      <point x="620" y="1491"/>
      <point x="620.0" y="1452.0" type="qcurve" smooth="yes"/>
      <point x="620.0" y="1415"/>
      <point x="583" y="1384.0"/>
      <point x="563.0" y="1384.0" type="qcurve" smooth="yes"/>
      <point x="549" y="1384"/>
      <point x="531.0" y="1406.0"/>
      <point x="525.0" y="1461.0" type="qcurve" smooth="yes"/>
      <point x="522" y="1490"/>
      <point x="514.0" y="1527.0"/>
      <point x="485.0" y="1526.0" type="qcurve" smooth="yes"/>
      <point x="429.0" y="1524.0"/>
      <point x="330" y="1339"/>
      <point x="274.0" y="1060.0" type="qcurve" smooth="yes"/>
      <point x="235.0" y="864.0" type="line"/>
      <point x="234.0" y="858.0" type="line"/>
      <point x="185.0" y="566.0" type="line" smooth="yes"/>
      <point x="94.0" y="14.0"/>
      <point x="-123" y="-479.0"/>
      <point x="-323.0" y="-479.0" type="qcurve"/>
    </contour>
    <contour>
      <point x="44.0" y="845.0" type="line"/>
      <point x="45.0" y="859.0" type="line"/>
      <point x="192.0" y="880.0" type="line"/>
      <point x="387.0" y="880.0" type="line"/>
      <point x="388.0" y="867.0" type="line"/>
      <point x="209.0" y="845.0" type="line"/>
      <point x="183.0" y="841.0" type="line"/>
    </contour>
  </outline>
</glyph>
<glyph name="g" format="2">
  <advance width="677"/>
  <unicode hex="0067"/>
  <outline>
    <contour>
      <point x="34" y="304" type="qcurve" smooth="yes"/>
      <point x="59" y="505"/>
      <point x="322" y="932"/>
      <point x="489" y="932.0" type="qcurve" smooth="yes"/>
      <point x="543.0" y="932.0"/>
      <point x="619.0" y="890.0"/>
      <point x="642.0" y="846.0" type="qcurve"/>
      <point x="683.0" y="929.0" type="line"/>
      <point x="703.0" y="928.0" type="line"/>
      <point x="678.0" y="837.0" type="line"/>
      <point x="631.0" y="630.0" type="line" smooth="yes"/>
      <point x="581" y="410"/>
      <point x="510" y="118"/>
      <point x="478" y="-3" type="qcurve" smooth="yes"/>
      <point x="417" y="-229"/>
      <point x="186" y="-475.0"/>
      <point x="66.0" y="-475.0" type="qcurve"/>
      <point x="-50.0" y="-421.0" type="line"/>
      <point x="-44.0" y="-415.0" type="line"/>
      <point x="73.0" y="-419.0" type="line" smooth="yes"/>
      <point x="194" y="-423"/>
      <point x="359" y="-256"/>
      <point x="421.0" y="-8.0" type="qcurve" smooth="yes"/>
      <point x="458.0" y="141.0" type="line"/>
      <point x="430.0" y="86.0"/>
      <point x="301" y="-11"/>
      <point x="207" y="-11" type="qcurve" smooth="yes"/>
      <point x="116" y="-11"/>
      <point x="13" y="135"/>
    </contour>
    <contour>
      <point x="105" y="302" type="qcurve" smooth="yes"/>
      <point x="83" y="138"/>
      <point x="168.0" y="7.0"/>
      <point x="238.0" y="7.0" type="qcurve" smooth="yes"/>
      <point x="308.0" y="7.0"/>
      <point x="459" y="145"/>
      <point x="492.0" y="290.0" type="qcurve" smooth="yes"/>
      <point x="615.0" y="828.0" type="line"/>
      <point x="603.0" y="867.0"/>
      <point x="548" y="916"/>
      <point x="491" y="916.0" type="qcurve" smooth="yes"/>
      <point x="344" y="916"/>
      <point x="130.0" y="490.0"/>
    </contour>
  </outline>
</glyph>
<glyph name="h" format="2">
  <advance width="680"/>
  <unicode hex="0068"/>
  <outline>
    <contour>
      <point x="21" y="-5" type="line"/>
      <point x="10" y="49" type="line"/>
      <point x="141" y="599" type="line"/>
      <point x="322" y="1515" type="line"/>
      <point x="126" y="1493" type="line"/>
      <point x="121" y="1507" type="line"/>
      <point x="372" y="1577" type="line"/>
      <point x="390" y="1577" type="line"/>
      <point x="217" y="673" type="line"/>
      <point x="84" y="78" type="line"/>
      <point x="90" y="12" type="line"/>
    </contour>
    <contour>
      <point x="427" y="-7" type="line"/>
      <point x="377" y="51" type="line"/>
      <point x="540" y="762" type="line" smooth="yes"/>
      <point x="554" y="823"/>
      <point x="530" y="904"/>
      <point x="483" y="904" type="qcurve" smooth="yes"/>
      <point x="419" y="904"/>
      <point x="250" y="761"/>
      <point x="182" y="605" type="qcurve"/>
      <point x="170" y="631" type="line"/>
      <point x="246" y="792"/>
      <point x="421" y="931"/>
      <point x="511" y="931" type="qcurve" smooth="yes"/>
      <point x="581" y="931"/>
      <point x="620" y="813"/>
      <point x="589" y="681" type="qcurve" smooth="yes"/>
      <point x="441" y="60" type="line"/>
      <point x="616" y="85" type="line"/>
      <point x="616" y="72" type="line"/>
    </contour>
  </outline>
</glyph>
<glyph name="j" format="2">
  <advance width="340"/>
  <unicode hex="006A"/>
  <outline>
    <contour>
      <point x="205.0" y="867.0" type="qcurve"/>
      <point x="57.0" y="867.0" type="line"/>
      <point x="57.0" y="882.0" type="line"/>
      <point x="235.0" y="922.0" type="line"/>
      <point x="239.0" y="922.0" type="line"/>
      <point x="290.0" y="906.0" type="line"/>
      <point x="243.0" y="725.0" type="line"/>
      <point x="167.0" y="303.0" type="line" smooth="yes"/>
      <point x="110" y="-16"/>
      <point x="-145" y="-467.0"/>
      <point x="-306.0" y="-467.0" type="qcurve"/>
      <point x="-442.0" y="-427.0" type="line"/>
      <point x="-441.0" y="-418.0" type="line"/>
      <point x="-340.0" y="-418.0" type="line" smooth="yes"/>
      <point x="-178" y="-418"/>
      <point x="7" y="-147"/>
      <point x="71.0" y="159.0" type="qcurve" smooth="yes"/>
      <point x="91" y="255"/>
      <point x="178.0" y="702.0"/>
    </contour>
    <contour>
      <point x="249.0" y="1270.0" type="qcurve" smooth="yes"/>
      <point x="253.0" y="1305.0"/>
      <point x="288.0" y="1343.0"/>
      <point x="318.0" y="1343.0" type="qcurve" smooth="yes"/>
      <point x="347.0" y="1343.0"/>
      <point x="378.0" y="1303.0"/>
      <point x="374.0" y="1270.0" type="qcurve" smooth="yes"/>
      <point x="369.0" y="1235.0"/>
      <point x="335.0" y="1197.0"/>
      <point x="304.0" y="1197.0" type="qcurve" smooth="yes"/>
      <point x="276.0" y="1197.0"/>
      <point x="245.0" y="1237.0"/>
    </contour>
  </outline>
</glyph>
<glyph name="n" format="2">
  <advance width="687"/>
  <unicode hex="006E"/>
  <outline>
    <contour>
      <point x="28.0" y="-6.0" type="line"/>
      <point x="17.0" y="49.0" type="line"/>
      <point x="122.0" y="490.0" type="line"/>
      <point x="197.0" y="865.0" type="line"/>
      <point x="50.0" y="867.0" type="line"/>
      <point x="50.0" y="882.0" type="line"/>
      <point x="219.0" y="921.0" type="line"/>
      <point x="245.0" y="907.0" type="line"/>
      <point x="196.0" y="647.0" type="line"/>
      <point x="198.0" y="595.0" type="line"/>
      <point x="82.0" y="78.0" type="line"/>
      <point x="86.0" y="12.0" type="line"/>
    </contour>
    <contour>
      <point x="453.0" y="-6.0" type="line"/>
      <point x="402.0" y="82.0" type="line"/>
      <point x="557.0" y="762.0" type="line" smooth="yes"/>
      <point x="572.0" y="823.0"/>
      <point x="540.0" y="906.0"/>
      <point x="490.0" y="906.0" type="qcurve" smooth="yes"/>
      <point x="435.0" y="906.0"/>
      <point x="257.0" y="760.0"/>
      <point x="188.0" y="606.0" type="qcurve"/>
      <point x="179.0" y="629.0" type="line"/>
      <point x="270.0" y="825.0"/>
      <point x="428.0" y="931.0"/>
      <point x="518.0" y="931.0" type="qcurve" smooth="yes"/>
      <point x="593.0" y="931.0"/>
      <point x="626.0" y="812.0"/>
      <point x="596.0" y="682.0" type="qcurve" smooth="yes"/>
      <point x="448.0" y="60.0" type="line"/>
      <point x="637.0" y="89.0" type="line"/>
      <point x="637.0" y="76.0" type="line"/>
    </contour>
  </outline>
</glyph>
<glyph name="o" format="2">
  <advance width="616"/>
  <unicode hex="006F"/>
  <outline>
    <contour>
      <point x="55.0" y="504.0" type="qcurve" smooth="yes"/>
      <point x="101.0" y="720.0"/>
      <point x="312.0" y="955.0"/>
      <point x="423.0" y="939.0" type="qcurve" smooth="yes"/>
      <point x="540.0" y="922.0"/>
      <point x="582.0" y="637.0"/>
      <point x="551.0" y="461.0" type="qcurve" smooth="yes"/>
      <point x="510.0" y="230.0"/>
      <point x="301.0" y="-28.0"/>
      <point x="193.0" y="-8.0" type="qcurve" smooth="yes"/>
      <point x="82.0" y="13.0"/>
      <point x="9.0" y="289.0"/>
    </contour>
    <contour>
      <point x="125.0" y="540.0" type="qcurve" smooth="yes"/>
      <point x="66.0" y="303.0"/>
      <point x="112.0" y="25.0"/>
      <point x="196.0" y="12.0" type="qcurve" smooth="yes"/>
      <point x="304.0" y="-4.0"/>
      <point x="459.0" y="265.0"/>
      <point x="497.0" y="463.0" type="qcurve" smooth="yes"/>
      <point x="535.0" y="662.0"/>
      <point x="499.0" y="909.0"/>
      <point x="423.0" y="924.0" type="qcurve" smooth="yes"/>
      <point x="343.0" y="940.0"/>
      <point x="174.0" y="737.0"/>
    </contour>
  </outline>
</glyph>
<glyph name="p" format="2">
  <advance width="705"/>
  <unicode hex="0070"/>
  <outline>
    <contour>
      <point x="-86.0" y="-472.0" type="line"/>
      <point x="121.0" y="511.0" type="line"/>
      <point x="157.0" y="796.0" type="line"/>
      <point x="147.0" y="895.0" type="line"/>
      <point x="194.0" y="927.0" type="line"/>
      <point x="213.0" y="927.0" type="line"/>
      <point x="168.0" y="685.0" type="line"/>
      <point x="226.0" y="785.0"/>
      <point x="411.0" y="948.0"/>
      <point x="521.0" y="948.0" type="qcurve" smooth="yes"/>
      <point x="577.0" y="948.0"/>
      <point x="668.0" y="819.0"/>
      <point x="662.0" y="720.0" type="qcurve" smooth="yes"/>
      <point x="644.0" y="423.0"/>
      <point x="425.0" y="20.0"/>
      <point x="224.0" y="20.0" type="qcurve" smooth="yes"/>
      <point x="188.0" y="20.0"/>
      <point x="103.0" y="35.0"/>
      <point x="84.0" y="49.0" type="qcurve"/>
      <point x="-26.0" y="-454.0" type="line"/>
      <point x="143.0" y="-450.0" type="line"/>
      <point x="145.0" y="-465.0" type="line"/>
      <point x="-72.0" y="-497.0" type="line"/>
    </contour>
    <contour>
      <point x="86.0" y="87.0" type="line"/>
      <point x="81.0" y="54.0"/>
      <point x="204.0" y="29.0"/>
      <point x="224.0" y="28.0" type="qcurve" smooth="yes"/>
      <point x="362.0" y="25.0"/>
      <point x="576.0" y="455.0"/>
      <point x="589.0" y="639.0" type="qcurve" smooth="yes"/>
      <point x="597.0" y="781.0"/>
      <point x="532.0" y="912.0"/>
      <point x="489.0" y="912.0" type="qcurve" smooth="yes"/>
      <point x="411.0" y="910.0"/>
      <point x="243.0" y="779.0"/>
      <point x="194.0" y="691.0" type="qcurve"/>
      <point x="160.0" y="521.0" type="line"/>
    </contour>
  </outline>
</glyph>
<glyph name="q" format="2">
  <advance width="710"/>
  <unicode hex="0071"/>
  <outline>
    <contour>
      <point x="33.0" y="238.0" type="qcurve" smooth="yes"/>
      <point x="51.0" y="504.0"/>
      <point x="311.0" y="949.0"/>
      <point x="463.0" y="949.0" type="qcurve" smooth="yes"/>
      <point x="540.0" y="949.0"/>
      <point x="652.0" y="900.0"/>
      <point x="663.0" y="886.0" type="qcurve"/>
      <point x="666.0" y="907.0" type="line"/>
      <point x="678.0" y="907.0" type="line"/>
      <point x="640.0" y="780.0" type="line"/>
      <point x="566.0" y="414.0" type="line"/>
      <point x="414.0" y="-438.0" type="line"/>
      <point x="553.0" y="-452.0" type="line"/>
      <point x="553.0" y="-465.0" type="line"/>
      <point x="376.0" y="-478.0" type="line"/>
      <point x="360.0" y="-455.0" type="line"/>
      <point x="491.0" y="221.0" type="line"/>
      <point x="482.0" y="223.0" type="line"/>
      <point x="426.0" y="121.0"/>
      <point x="314.0" y="10.0"/>
      <point x="210.0" y="10.0" type="qcurve" smooth="yes"/>
      <point x="125.0" y="10.0"/>
      <point x="26.0" y="123.0"/>
    </contour>
    <contour>
      <point x="95.0" y="234.0" type="qcurve" smooth="yes"/>
      <point x="87.0" y="127.0"/>
      <point x="153.0" y="21.0"/>
      <point x="217.0" y="21.0" type="qcurve" smooth="yes"/>
      <point x="289.0" y="21.0"/>
      <point x="471.0" y="196.0"/>
      <point x="522.0" y="389.0" type="qcurve" smooth="yes"/>
      <point x="624.0" y="855.0" type="line"/>
      <point x="618.0" y="886.0"/>
      <point x="516.0" y="936.0"/>
      <point x="468.0" y="936.0" type="qcurve" smooth="yes"/>
      <point x="311.0" y="936.0"/>
      <point x="115.0" y="464.0"/>
    </contour>
  </outline>
</glyph>
<glyph name="r" format="2">
  <advance width="605"/>
  <unicode hex="0072"/>
  <outline>
    <contour>
      <point x="61.0" y="0.0" type="line"/>
      <point x="21.0" y="81.0" type="line"/>
      <point x="136.0" y="546.0" type="line"/>
      <point x="196.0" y="854.0" type="line"/>
      <point x="46.0" y="857.0" type="line"/>
      <point x="47.0" y="872.0" type="line"/>
      <point x="217.0" y="909.0" type="line"/>
      <point x="230.0" y="909.0" type="line"/>
      <point x="189.0" y="649.0" type="line"/>
      <point x="185.0" y="618.0" type="line"/>
      <point x="65.0" y="58.0" type="line"/>
      <point x="231.0" y="90.0" type="line"/>
      <point x="229.0" y="79.0" type="line"/>
    </contour>
    <contour>
      <point x="460.0" y="743.0" type="line"/>
      <point x="468.0" y="928.0" type="line"/>
      <point x="356.0" y="935.0"/>
      <point x="220.0" y="752.0"/>
      <point x="180.0" y="622.0" type="qcurve"/>
      <point x="181.0" y="642.0" type="line"/>
      <point x="221.0" y="763.0"/>
      <point x="371.0" y="941.0"/>
      <point x="487.0" y="941.0" type="qcurve" smooth="yes"/>
      <point x="526.0" y="941.0"/>
      <point x="554.0" y="896.0"/>
      <point x="554.0" y="872.0" type="qcurve" smooth="yes"/>
      <point x="554.0" y="823.0"/>
      <point x="511.0" y="743.0"/>
      <point x="477.0" y="743.0" type="qcurve" smooth="yes"/>
    </contour>
  </outline>
</glyph>
<glyph name="u" format="2">
  <advance width="645"/>
  <unicode hex="0075"/>
  <outline>
    <contour>
      <point x="424.0" y="1.0" type="line"/>
      <point x="391.0" y="82.0" type="line"/>
      <point x="434.0" y="213.0" type="line"/>
      <point x="562.0" y="844.0" type="line"/>
      <point x="561.0" y="906.0" type="line"/>
      <point x="608.0" y="920.0" type="line"/>
      <point x="625.0" y="900.0" type="line"/>
      <point x="478.0" y="177.0" type="line"/>
      <point x="438.0" y="56.0" type="line"/>
      <point x="580.0" y="84.0" type="line"/>
      <point x="580.0" y="71.0" type="line"/>
    </contour>
    <contour>
      <point x="74.0" y="272.0" type="qcurve" smooth="yes"/>
      <point x="186.0" y="866.0" type="line"/>
      <point x="36.0" y="868.0" type="line"/>
      <point x="36.0" y="883.0" type="line"/>
      <point x="199.0" y="920.0" type="line"/>
      <point x="229.0" y="920.0" type="line"/>
      <point x="246.0" y="900.0" type="line"/>
      <point x="106.0" y="188.0" type="line" smooth="yes"/>
      <point x="89.0" y="99.0"/>
      <point x="157.0" y="0.0"/>
      <point x="222.0" y="0.0" type="qcurve" smooth="yes"/>
      <point x="290.0" y="0.0"/>
      <point x="411.0" y="121.0"/>
      <point x="473.0" y="249.0" type="qcurve"/>
      <point x="473.0" y="239.0" type="line"/>
      <point x="430.0" y="135.0"/>
      <point x="302.0" y="-7.0"/>
      <point x="214.0" y="-7.0" type="qcurve" smooth="yes"/>
      <point x="100.0" y="-7.0"/>
      <point x="50.0" y="137.0"/>
    </contour>
  </outline>
</glyph>
<glyph name="v" format="2">
  <advance width="537"/>
  <unicode hex="0076"/>
  <outline>
    <contour>
      <point x="-49.0" y="868.0" type="line"/>
      <point x="-48.0" y="883.0" type="line"/>
      <point x="117.0" y="920.0" type="line"/>
      <point x="132.0" y="920.0" type="line"/>
      <point x="136.0" y="521.0" type="line"/>
      <point x="162.0" y="65.0" type="line"/>
      <point x="328.0" y="269.0"/>
      <point x="511.0" y="679.0"/>
      <point x="515.0" y="782.0" type="qcurve" smooth="yes"/>
      <point x="517.0" y="832.0"/>
      <point x="504.0" y="880.0"/>
      <point x="462.0" y="907.0" type="qcurve" smooth="yes"/>
      <point x="471.0" y="917.0"/>
      <point x="515.0" y="930.0"/>
      <point x="534.0" y="930.0" type="qcurve" smooth="yes"/>
      <point x="553.0" y="930.0"/>
      <point x="567.0" y="887.0"/>
      <point x="567.0" y="844.0" type="qcurve" smooth="yes"/>
      <point x="567.0" y="771.0"/>
      <point x="331.0" y="221.0"/>
      <point x="110.0" y="-8.0" type="qcurve"/>
      <point x="111.0" y="10.0" type="line"/>
      <point x="114.0" y="483.0" type="line"/>
      <point x="91.0" y="866.0" type="line"/>
    </contour>
  </outline>
</glyph>
<glyph name="w" format="2">
  <advance width="797"/>
  <unicode hex="0077"/>
  <outline>
    <contour>
      <point x="-59.0" y="864.0" type="line"/>
      <point x="-58.0" y="879.0" type="line"/>
      <point x="110.0" y="920.0" type="line"/>
      <point x="118.0" y="920.0" type="line"/>
      <point x="114.0" y="539.0" type="line"/>
      <point x="143.0" y="69.0" type="line"/>
      <point x="266.0" y="222.0"/>
      <point x="411.0" y="489.0"/>
      <point x="448.0" y="604.0" type="qcurve"/>
      <point x="440.0" y="593.0" type="line"/>
      <point x="410.0" y="475.0"/>
      <point x="242.0" y="172.0"/>
      <point x="89.0" y="-8.0" type="qcurve"/>
      <point x="91.0" y="10.0" type="line"/>
      <point x="91.0" y="485.0" type="line"/>
      <point x="81.0" y="865.0" type="line"/>
    </contour>
    <contour>
      <point x="304.0" y="883.0" type="line"/>
      <point x="435.0" y="920.0" type="line"/>
      <point x="449.0" y="920.0" type="line"/>
      <point x="437.0" y="542.0" type="line"/>
      <point x="458.0" y="69.0" type="line"/>
      <point x="604.0" y="261.0"/>
      <point x="802.0" y="664.0"/>
      <point x="805.0" y="788.0" type="qcurve" smooth="yes"/>
      <point x="808.0" y="826.0"/>
      <point x="793.0" y="871.0"/>
      <point x="750.0" y="898.0" type="qcurve" smooth="yes"/>
      <point x="764.0" y="909.0"/>
      <point x="818.0" y="925.0"/>
      <point x="840.0" y="925.0" type="qcurve" smooth="yes"/>
      <point x="855.0" y="925.0"/>
      <point x="859.0" y="882.0"/>
      <point x="855.0" y="854.0" type="qcurve" smooth="yes"/>
      <point x="851.0" y="781.0"/>
      <point x="606.0" y="239.0"/>
      <point x="406.0" y="-8.0" type="qcurve"/>
      <point x="406.0" y="10.0" type="line"/>
      <point x="426.0" y="451.0" type="line"/>
      <point x="430.0" y="866.0" type="line"/>
      <point x="302.0" y="868.0" type="line"/>
    </contour>
  </outline>
</glyph>
<glyph name="x" format="2">
  <advance width="654"/>
  <unicode hex="0078"/>
  <outline>
    <contour>
      <point x="55.0" y="863.0" type="line"/>
      <point x="52.0" y="886.0" type="line"/>
      <point x="206.0" y="923.0" type="line"/>
      <point x="224.0" y="903.0" type="line"/>
      <point x="304.0" y="551.0" type="line"/>
      <point x="452.0" y="44.0" type="line"/>
      <point x="616.0" y="73.0" type="line"/>
      <point x="613.0" y="65.0" type="line"/>
      <point x="423.0" y="-17.0" type="line"/>
      <point x="411.0" y="15.0" type="line"/>
      <point x="282.0" y="442.0" type="line"/>
      <point x="177.0" y="878.0" type="line"/>
    </contour>
    <contour>
      <point x="-143.0" y="28.0" type="line"/>
      <point x="-147.0" y="35.0" type="line"/>
      <point x="-128.0" y="39.0" type="line" smooth="yes"/>
      <point x="-2.0" y="64.0"/>
      <point x="98.0" y="153.0"/>
      <point x="285.0" y="498.0" type="qcurve" smooth="yes"/>
      <point x="436.0" y="777.0"/>
      <point x="548.0" y="941.0"/>
      <point x="605.0" y="941.0" type="qcurve" smooth="yes"/>
      <point x="631.0" y="941.0"/>
      <point x="656.0" y="889.0"/>
      <point x="656.0" y="870.0" type="qcurve" smooth="yes"/>
      <point x="656.0" y="852.0"/>
      <point x="627.0" y="804.0"/>
      <point x="608.0" y="798.0" type="qcurve"/>
      <point x="593.0" y="809.0" type="line"/>
      <point x="595.0" y="803.0" type="line"/>
      <point x="595.0" y="848.0"/>
      <point x="585.0" y="882.0"/>
      <point x="576.0" y="882.0" type="qcurve" smooth="yes"/>
      <point x="548.0" y="882.0"/>
      <point x="419.0" y="742.0"/>
      <point x="277.0" y="463.0" type="qcurve" smooth="yes"/>
      <point x="139.0" y="212.0"/>
      <point x="71.0" y="-2.0"/>
      <point x="-19.0" y="-4.0" type="qcurve"/>
    </contour>
  </outline>
</glyph>
<glyph name="y" format="2">
  <advance width="562"/>
  <unicode hex="0079"/>
  <outline>
    <contour>
      <point x="-355.0" y="-459.0" type="line"/>
      <point x="-360.22535211267603" y="-454.3380281690141" type="line"/>
      <point x="-265.0" y="-447.3380281690141" type="line" smooth="yes"/>
      <point x="-182.0" y="-440.3380281690141"/>
      <point x="17.0" y="-230.0"/>
      <point x="114.70422535211267" y="-94.25352112676057" type="qcurve" smooth="yes"/>
      <point x="220.0" y="37.0" type="line"/>
      <point x="227.0" y="37.0" type="line"/>
      <point x="169.0" y="302.0"/>
      <point x="116.0" y="763.0"/>
      <point x="97.0" y="866.0" type="qcurve"/>
      <point x="-44.0" y="868.0" type="line"/>
      <point x="-43.0" y="883.0" type="line"/>
      <point x="123.0" y="920.0" type="line"/>
      <point x="121.0" y="920.0" type="line"/>
      <point x="113.0" y="895.0" type="line"/>
      <point x="255.0" y="68.0" type="line"/>
      <point x="404.0" y="267.0"/>
      <point x="575.0" y="599.0"/>
      <point x="575.4647887323944" y="722.2394366197183" type="qcurve" smooth="yes"/>
      <point x="576.0" y="791.0"/>
      <point x="479.0" y="890.0"/>
      <point x="455.0" y="899.0" type="qcurve" smooth="yes"/>
      <point x="469.0" y="914.0"/>
      <point x="523.0" y="933.0"/>
      <point x="550.0" y="933.0" type="qcurve" smooth="yes"/>
      <point x="556.0" y="933.0"/>
      <point x="578.0" y="894.0"/>
      <point x="578.0" y="840.0" type="qcurve" smooth="yes"/>
      <point x="578.0" y="679.0"/>
      <point x="460.3661971830986" y="341.38028169014086"/>
      <point x="181.0" y="-49.0" type="qcurve" smooth="yes"/>
      <point x="124.0" y="-122.0" type="line" smooth="yes"/>
      <point x="-16.0" y="-317.0"/>
      <point x="-174.0" y="-473.0"/>
      <point x="-240.0" y="-479.0" type="qcurve"/>
    </contour>
  </outline>
</glyph>
<glyph name="z" format="2">
  <advance width="468"/>
  <unicode hex="007A"/>
  <outline>
    <contour>
      <point x="-128.0" y="22.0" type="line"/>
      <point x="-137.0" y="35.0" type="line"/>
      <point x="-86.0" y="82.0"/>
      <point x="151.0" y="369.0"/>
      <point x="260.0" y="510.0" type="qcurve" smooth="yes"/>
      <point x="331.0" y="602.0"/>
      <point x="506.0" y="821.0"/>
      <point x="530.0" y="873.0" type="qcurve"/>
      <point x="194.0" y="876.0" type="line"/>
      <point x="106.0" y="702.0" type="line"/>
      <point x="104.0" y="702.0" type="line"/>
      <point x="166.0" y="909.0" type="line"/>
      <point x="182.0" y="928.0" type="line"/>
      <point x="557.0" y="914.0" type="line"/>
      <point x="556.0" y="883.0" type="line"/>
      <point x="538.0" y="827.0"/>
      <point x="354.0" y="611.0"/>
      <point x="268.0" y="497.0" type="qcurve" smooth="yes"/>
      <point x="187.0" y="390.0"/>
      <point x="-10.0" y="148.0"/>
      <point x="-22.0" y="114.0" type="qcurve"/>
      <point x="316.0" y="48.0" type="line"/>
      <point x="411.0" y="255.0" type="line"/>
      <point x="422.0" y="260.0" type="line"/>
      <point x="327.0" y="0.0" type="line"/>
      <point x="298.0" y="-19.0" type="line"/>
      <point x="-73.0" y="80.0" type="line"/>
    </contour>
  </outline>
</glyph>
<glyph name="registered" format="2">
  <advance width="1491"/>
  <unicode hex="00AE"/>
  <outline>
    <contour>
      <point x="13.0" y="679.0" type="qcurve" smooth="yes"/>
      <point x="13.0" y="1035.0"/>
      <point x="407.0" y="1516.0"/>
      <point x="702.0" y="1516.0" type="qcurve" smooth="yes"/>
      <point x="997.0" y="1516.0"/>
      <point x="1388.0" y="1060.0"/>
      <point x="1388.0" y="700.0" type="qcurve" smooth="yes"/>
      <point x="1388.0" y="305.0"/>
      <point x="1003.0" y="-196.0"/>
      <point x="711.0" y="-196.0" type="qcurve" smooth="yes"/>
      <point x="411.0" y="-196.0"/>
      <point x="13.0" y="293.0"/>
    </contour>
    <contour>
      <point x="69.0" y="675.0" type="qcurve" smooth="yes"/>
      <point x="69.0" y="331.0"/>
      <point x="412.0" y="-126.0"/>
      <point x="707.0" y="-126.0" type="qcurve" smooth="yes"/>
      <point x="995.0" y="-126.0"/>
      <point x="1332.0" y="337.0"/>
      <point x="1332.0" y="693.0" type="qcurve" smooth="yes"/>
      <point x="1332.0" y="1007.0"/>
      <point x="1011.0" y="1443.0"/>
      <point x="703.0" y="1443.0" type="qcurve" smooth="yes"/>
      <point x="407.0" y="1443.0"/>
      <point x="69.0" y="998.0"/>
    </contour>
    <contour>
      <point x="483.0" y="259.0" type="line"/>
      <point x="486.0" y="276.0" type="line"/>
      <point x="563.0" y="296.0" type="line"/>
      <point x="569.0" y="698.0" type="line"/>
      <point x="561.0" y="1049.0" type="line"/>
      <point x="487.0" y="1073.0" type="line"/>
      <point x="489.0" y="1089.0" type="line"/>
      <point x="720.0" y="1089.0" type="line" smooth="yes"/>
      <point x="822.0" y="1089.0"/>
      <point x="912.0" y="965.0"/>
      <point x="912.0" y="863.0" type="qcurve" smooth="yes"/>
      <point x="912.0" y="761.0"/>
      <point x="810.0" y="634.0"/>
      <point x="727.0" y="634.0" type="qcurve" smooth="yes"/>
      <point x="695.0" y="634.0"/>
      <point x="593.0" y="636.0"/>
      <point x="578.0" y="636.0" type="qcurve"/>
      <point x="576.0" y="654.0" type="line"/>
      <point x="719.0" y="654.0" type="line" smooth="yes"/>
      <point x="798.0" y="654.0"/>
      <point x="881.0" y="766.0"/>
      <point x="881.0" y="876.0" type="qcurve" smooth="yes"/>
      <point x="881.0" y="953.0"/>
      <point x="814.0" y="1064.0"/>
      <point x="713.0" y="1065.0" type="qcurve" smooth="yes"/>
      <point x="614.0" y="1065.0" type="line"/>
      <point x="599.0" y="1051.0" type="line"/>
      <point x="593.0" y="698.0" type="line"/>
      <point x="601.0" y="296.0" type="line"/>
      <point x="716.0" y="276.0" type="line"/>
      <point x="716.0" y="259.0" type="line"/>
    </contour>
    <contour>
      <point x="764.0" y="648.0" type="line"/>
      <point x="799.0" y="651.0" type="line"/>
      <point x="917.0" y="391.0" type="line" smooth="yes"/>
      <point x="948.0" y="321.0"/>
      <point x="1007.0" y="272.0"/>
      <point x="1050.0" y="272.0" type="qcurve"/>
      <point x="1050.0" y="259.0" type="line"/>
      <point x="960.0" y="259.0" type="line"/>
      <point x="931.0" y="276.0" type="line"/>
    </contour>
  </outline>
</glyph>
<glyph name="acute" format="2">
  <advance width="896"/>
  <unicode hex="00B4"/>
  <outline>
    <contour>
      <point x="552.0" y="1006.0" type="line"/>
      <point x="567.0" y="1002.0" type="line"/>
      <point x="713.0" y="1161.0" type="line" smooth="yes"/>
      <point x="720.0" y="1173.0"/>
      <point x="731.0" y="1201.0"/>
      <point x="728.0" y="1205.0" type="qcurve" smooth="yes"/>
      <point x="725.0" y="1216.0"/>
      <point x="713.0" y="1216.0"/>
      <point x="711.0" y="1213.0" type="qcurve" smooth="yes"/>
      <point x="708.0" y="1209.0"/>
      <point x="688.0" y="1177.0"/>
      <point x="681.0" y="1166.0" type="qcurve" smooth="yes"/>
    </contour>
  </outline>
</glyph>
<glyph name="Schwa" format="2">
  <advance width="793"/>
  <unicode hex="018F"/>
  <outline>
    <contour>
      <point x="208.0" y="1242.0" type="line"/>
      <point x="308.0" y="1405.0"/>
      <point x="503.0" y="1526.0"/>
      <point x="601.0" y="1503.0" type="qcurve" smooth="yes"/>
      <point x="746.0" y="1472.0"/>
      <point x="807.0" y="1067.0"/>
      <point x="710.0" y="674.0" type="qcurve" smooth="yes"/>
      <point x="611.0" y="279.0"/>
      <point x="453.0" y="-23.0"/>
      <point x="259.0" y="-19.0" type="qcurve" smooth="yes"/>
      <point x="145.0" y="-16.0"/>
      <point x="24.0" y="175.0"/>
      <point x="25.0" y="326.0" type="qcurve" smooth="yes"/>
      <point x="25.0" y="371.0"/>
      <point x="37.0" y="448.0"/>
      <point x="51.0" y="494.0" type="qcurve"/>
      <point x="67.0" y="509.0" type="line"/>
      <point x="612.0" y="505.0" type="line"/>
      <point x="624.0" y="542.0"/>
      <point x="648.0" y="641.0"/>
      <point x="663.0" y="705.0" type="qcurve" smooth="yes"/>
      <point x="735.0" y="1009.0"/>
      <point x="763.0" y="1430.0"/>
      <point x="596.0" y="1465.0" type="qcurve" smooth="yes"/>
      <point x="484.0" y="1492.0"/>
      <point x="297.0" y="1329.0"/>
      <point x="228.0" y="1205.0" type="qcurve"/>
      <point x="203.0" y="1229.0" type="line"/>
    </contour>
    <contour>
      <point x="302.0" y="9.0" type="qcurve" smooth="yes"/>
      <point x="395.0" y="-13.0"/>
      <point x="563.0" y="237.0"/>
      <point x="633.0" y="475.0" type="qcurve"/>
      <point x="403.0" y="468.0" type="line"/>
      <point x="105.0" y="460.0" type="line" smooth="yes"/>
      <point x="51.0" y="458.0"/>
      <point x="8.0" y="359.0"/>
      <point x="21.0" y="295.0" type="qcurve" smooth="yes"/>
      <point x="42.0" y="188.0"/>
      <point x="166.0" y="26.0"/>
    </contour>
  </outline>
</glyph>
<glyph name="doubleprimemod" format="2">
  <advance width="558"/>
  <unicode hex="02BA"/>
  <outline>
    <contour>
      <point x="344.0" y="1502.0" type="line"/>
      <point x="478.0" y="1502.0" type="line"/>
      <point x="256.0" y="991.0" type="line"/>
      <point x="234.0" y="996.0" type="line"/>
    </contour>
    <contour>
      <point x="665.0" y="1502.0" type="line"/>
      <point x="799.0" y="1502.0" type="line"/>
      <point x="577.0" y="991.0" type="line"/>
      <point x="554.0" y="996.0" type="line"/>
    </contour>
  </outline>
</glyph>
<glyph name="hungarumlaut" format="2">
  <advance width="896"/>
  <unicode hex="02DD"/>
  <outline>
    <contour>
      <point x="389.0" y="1010.0" type="line"/>
      <point x="380.0" y="1014.0" type="line"/>
      <point x="516.0" y="1161.0" type="line" smooth="yes"/>
      <point x="527.0" y="1171.0"/>
      <point x="555.0" y="1195.0"/>
      <point x="562.0" y="1191.0" type="qcurve" smooth="yes"/>
      <point x="568.0" y="1187.0"/>
      <point x="582.0" y="1175.0"/>
      <point x="585.0" y="1166.0" type="qcurve" smooth="yes"/>
      <point x="589.0" y="1158.0"/>
      <point x="568.0" y="1134.0"/>
      <point x="555.0" y="1127.0" type="qcurve" smooth="yes"/>
    </contour>
    <contour>
      <point x="619.0" y="1010.0" type="line"/>
      <point x="609.0" y="1014.0" type="line"/>
      <point x="744.0" y="1161.0" type="line" smooth="yes"/>
      <point x="754.0" y="1173.0"/>
      <point x="783.0" y="1195.0"/>
      <point x="790.0" y="1191.0" type="qcurve" smooth="yes"/>
      <point x="796.0" y="1187.0"/>
      <point x="812.0" y="1175.0"/>
      <point x="813.0" y="1166.0" type="qcurve" smooth="yes"/>
      <point x="817.0" y="1158.0"/>
      <point x="797.0" y="1135.0"/>
      <point x="783.0" y="1127.0" type="qcurve" smooth="yes"/>
    </contour>
  </outline>
</glyph>
<glyph name="quotedblright" format="2">
  <advance width="442"/>
  <unicode hex="201D"/>
  <outline>
    <contour>
      <point x="371.0" y="1298.0" type="line"/>
      <point x="414.0" y="1316.0"/>
      <point x="490.0" y="1388.0"/>
      <point x="494.0" y="1409.0" type="qcurve"/>
      <point x="475.0" y="1406.0"/>
      <point x="442.0" y="1429.0"/>
      <point x="442.0" y="1462.0" type="qcurve" smooth="yes"/>
      <point x="442.0" y="1481.0"/>
      <point x="461.0" y="1510.0"/>
      <point x="484.0" y="1510.0" type="qcurve" smooth="yes"/>
      <point x="508.0" y="1510.0"/>
      <point x="531.0" y="1504.0"/>
      <point x="531.0" y="1468.0" type="qcurve" smooth="yes"/>
      <point x="531.0" y="1416.0"/>
      <point x="435.0" y="1313.0"/>
      <point x="369.0" y="1297.0" type="qcurve"/>
    </contour>
    <contour>
      <point x="211.0" y="1298.0" type="line"/>
      <point x="254.0" y="1316.0"/>
      <point x="330.0" y="1388.0"/>
      <point x="334.0" y="1409.0" type="qcurve"/>
      <point x="315.0" y="1406.0"/>
      <point x="282.0" y="1429.0"/>
      <point x="282.0" y="1462.0" type="qcurve" smooth="yes"/>
      <point x="282.0" y="1481.0"/>
      <point x="301.0" y="1510.0"/>
      <point x="324.0" y="1510.0" type="qcurve" smooth="yes"/>
      <point x="348.0" y="1510.0"/>
      <point x="371.0" y="1504.0"/>
      <point x="371.0" y="1468.0" type="qcurve" smooth="yes"/>
      <point x="371.0" y="1416.0"/>
      <point x="275.0" y="1313.0"/>
      <point x="209.0" y="1297.0" type="qcurve"/>
    </contour>
  </outline>
</glyph>
<glyph name="guilsinglright" format="2">
  <advance width="652"/>
  <unicode hex="203A"/>
  <outline>
    <contour>
      <point x="561.0" y="572.0" type="line"/>
      <point x="561.0" y="572.0"/>
      <point x="103.0" y="278.0"/>
      <point x="29.0" y="232.0" type="qcurve" smooth="yes"/>
      <point x="10.0" y="217.0"/>
      <point x="8.0" y="232.0"/>
      <point x="26.0" y="248.0" type="qcurve" smooth="yes"/>
      <point x="110.0" y="315.0"/>
      <point x="493.0" y="559.0"/>
      <point x="535.0" y="590.0" type="qcurve"/>
      <point x="494.0" y="620.0"/>
      <point x="143.0" y="881.0"/>
      <point x="108.0" y="917.0" type="qcurve" smooth="yes"/>
      <point x="83.0" y="943.0"/>
      <point x="86.0" y="954.0"/>
      <point x="109.0" y="936.0" type="qcurve" smooth="yes"/>
      <point x="158.0" y="903.0"/>
      <point x="512.0" y="650.0"/>
      <point x="566.0" y="602.0" type="qcurve"/>
    </contour>
  </outline>
</glyph>
<glyph name="fraction" format="2">
  <advance width="349"/>
  <unicode hex="2044"/>
  <outline>
    <contour>
      <point x="-260.0" y="9.0" type="line"/>
      <point x="747.0" y="1498.0" type="line"/>
      <point x="754.0" y="1494.0" type="line"/>
      <point x="-252.0" y="5.0" type="line"/>
    </contour>
  </outline>
</glyph>
<glyph name="lira" format="2">
  <advance width="905"/>
  <unicode hex="20A4"/>
  <outline>
    <contour>
      <point x="127.0" y="-13.0" type="qcurve" smooth="yes"/>
      <point x="60.0" y="-13.0"/>
      <point x="-18.0" y="87.0"/>
      <point x="-11.0" y="184.0" type="qcurve" smooth="yes"/>
      <point x="-4.0" y="267.0"/>
      <point x="83.0" y="363.0"/>
      <point x="149.0" y="363.0" type="qcurve" smooth="yes"/>
      <point x="195.0" y="363.0"/>
      <point x="355.0" y="291.0"/>
      <point x="407.0" y="246.0" type="qcurve" smooth="yes"/>
      <point x="481.0" y="185.0"/>
      <point x="626.0" y="40.0"/>
      <point x="697.0" y="41.0" type="qcurve" smooth="yes"/>
      <point x="759.0" y="42.0"/>
      <point x="815.0" y="119.0"/>
      <point x="835.0" y="181.0" type="qcurve"/>
      <point x="840.0" y="174.0" type="line"/>
      <point x="821.0" y="102.0"/>
      <point x="742.0" y="-12.0"/>
      <point x="665.0" y="-12.0" type="qcurve" smooth="yes"/>
      <point x="596.0" y="-12.0"/>
      <point x="422.0" y="144.0"/>
      <point x="358.0" y="197.0" type="qcurve" smooth="yes"/>
      <point x="308.0" y="239.0"/>
      <point x="184.0" y="307.0"/>
      <point x="137.0" y="307.0" type="qcurve" smooth="yes"/>
      <point x="68.0" y="307.0"/>
      <point x="2.0" y="204.0"/>
      <point x="9.0" y="133.0" type="qcurve" smooth="yes"/>
      <point x="17.0" y="62.0"/>
      <point x="106.0" y="6.0"/>
      <point x="145.0" y="6.0" type="qcurve" smooth="yes"/>
      <point x="262.0" y="6.0"/>
      <point x="423.0" y="219.0"/>
      <point x="430.0" y="406.0" type="qcurve" smooth="yes"/>
      <point x="436.0" y="491.0"/>
      <point x="407.0" y="697.0"/>
      <point x="364.0" y="812.0" type="qcurve" smooth="yes"/>
      <point x="338.0" y="896.0"/>
      <point x="324.0" y="1083.0"/>
      <point x="349.0" y="1169.0" type="qcurve" smooth="yes"/>
      <point x="382.0" y="1307.0"/>
      <point x="577.0" y="1501.0"/>
      <point x="708.0" y="1501.0" type="qcurve" smooth="yes"/>
      <point x="799.0" y="1501.0"/>
      <point x="886.0" y="1421.0"/>
      <point x="912.0" y="1356.0" type="qcurve"/>
      <point x="913.0" y="1339.0" type="line"/>
      <point x="882.0" y="1401.0"/>
      <point x="784.0" y="1479.0"/>
      <point x="719.0" y="1479.0" type="qcurve" smooth="yes"/>
      <point x="598.0" y="1480.0"/>
      <point x="430.0" y="1326.0"/>
      <point x="401.0" y="1212.0" type="qcurve" smooth="yes"/>
      <point x="379.0" y="1139.0"/>
      <point x="389.0" y="937.0"/>
      <point x="412.0" y="854.0" type="qcurve" smooth="yes"/>
      <point x="441.0" y="755.0"/>
      <point x="452.0" y="568.0"/>
      <point x="446.0" y="484.0" type="qcurve" smooth="yes"/>
      <point x="437.0" y="254.0"/>
      <point x="267.0" y="-13.0"/>
    </contour>
    <contour>
      <point x="218.0" y="586.0" type="line"/>
      <point x="222.0" y="602.0" type="line"/>
      <point x="766.0" y="602.0" type="line"/>
      <point x="761.0" y="586.0" type="line"/>
    </contour>
    <contour>
      <point x="181.0" y="809.0" type="line"/>
      <point x="185.0" y="825.0" type="line"/>
      <point x="729.0" y="825.0" type="line"/>
      <point x="724.0" y="809.0" type="line"/>
    </contour>
  </outline>
</glyph>
<glyph name="won" format="2">
  <advance width="1221"/>
  <unicode hex="20A9"/>
  <outline>
    <contour>
      <point x="1117.0" y="682.0" type="line"/>
      <point x="1019.0" y="682.0" type="line"/>
      <point x="1012.0" y="682.0" type="line"/>
      <point x="716.0" y="682.0" type="line"/>
      <point x="713.0" y="698.0" type="line"/>
      <point x="1017.0" y="698.0" type="line"/>
      <point x="1025.0" y="698.0" type="line"/>
      <point x="1121.0" y="698.0" type="line"/>
    </contour>
    <contour>
      <point x="1244.0" y="945.0" type="line"/>
      <point x="1151.0" y="945.0" type="line"/>
      <point x="1148.0" y="945.0" type="line"/>
      <point x="690.0" y="945.0" type="line"/>
      <point x="689.0" y="961.0" type="line"/>
      <point x="1149.0" y="961.0" type="line"/>
      <point x="1152.0" y="961.0" type="line"/>
      <point x="1245.0" y="961.0" type="line"/>
    </contour>
    <contour>
      <point x="208.0" y="682.0" type="line"/>
      <point x="207.0" y="698.0" type="line"/>
      <point x="319.0" y="698.0" type="line"/>
      <point x="327.0" y="698.0" type="line"/>
      <point x="713.0" y="698.0" type="line"/>
      <point x="716.0" y="682.0" type="line"/>
      <point x="330.0" y="682.0" type="line"/>
      <point x="322.0" y="682.0" type="line"/>
    </contour>
    <contour>
      <point x="246.0" y="945.0" type="line"/>
      <point x="245.0" y="961.0" type="line"/>
      <point x="313.0" y="961.0" type="line"/>
      <point x="321.0" y="961.0" type="line"/>
      <point x="689.0" y="961.0" type="line"/>
      <point x="690.0" y="945.0" type="line"/>
      <point x="323.0" y="945.0" type="line"/>
      <point x="314.0" y="945.0" type="line"/>
    </contour>
    <contour>
      <point x="75.0" y="1484.0" type="line"/>
      <point x="72.0" y="1500.0" type="line"/>
      <point x="438.0" y="1500.0" type="line"/>
      <point x="442.0" y="1483.0" type="line"/>
      <point x="290.0" y="1453.0" type="line"/>
      <point x="352.0" y="808.0" type="line"/>
      <point x="422.0" y="112.0" type="line"/>
      <point x="361.0" y="112.0" type="line"/>
      <point x="575.0" y="708.0" type="line"/>
      <point x="696.0" y="1138.0" type="line"/>
      <point x="711.0" y="1030.0" type="line"/>
      <point x="562.0" y="628.0" type="line"/>
      <point x="416.0" y="-3.0" type="line"/>
      <point x="349.0" y="-3.0" type="line"/>
      <point x="266.0" y="831.0" type="line"/>
      <point x="211.0" y="1453.0" type="line"/>
    </contour>
    <contour>
      <point x="501.0" y="1477.0" type="line"/>
      <point x="498.0" y="1500.0" type="line"/>
      <point x="850.0" y="1500.0" type="line"/>
      <point x="853.0" y="1483.0" type="line"/>
      <point x="702.0" y="1452.0" type="line"/>
      <point x="750.0" y="812.0" type="line"/>
      <point x="796.0" y="105.0" type="line"/>
      <point x="738.0" y="103.0" type="line"/>
      <point x="1058.0" y="831.0" type="line"/>
      <point x="1332.0" y="1439.0" type="line"/>
      <point x="1182.0" y="1485.0" type="line"/>
      <point x="1183.0" y="1500.0" type="line"/>
      <point x="1541.0" y="1500.0" type="line"/>
      <point x="1541.0" y="1485.0" type="line"/>
      <point x="1362.0" y="1439.0" type="line"/>
      <point x="1102.0" y="836.0" type="line"/>
      <point x="797.0" y="-3.0" type="line"/>
      <point x="735.0" y="-3.0" type="line"/>
      <point x="675.0" y="844.0" type="line"/>
      <point x="641.0" y="1451.0" type="line"/>
    </contour>
  </outline>
</glyph>
<glyph name="peso" format="2">
  <advance width="682"/>
  <unicode hex="20B1"/>
  <outline>
    <contour>
      <point x="871.0" y="1127.0" type="line"/>
      <point x="809.0" y="1127.0" type="line"/>
      <point x="807.0" y="1127.0" type="line"/>
      <point x="797.0" y="1127.0" type="line"/>
      <point x="801.0" y="1143.0" type="line"/>
      <point x="817.0" y="1143.0" type="line"/>
      <point x="819.0" y="1143.0" type="line"/>
      <point x="875.0" y="1143.0" type="line"/>
    </contour>
    <contour>
      <point x="252.0" y="1127.0" type="line"/>
      <point x="256.0" y="1143.0" type="line"/>
      <point x="387.0" y="1143.0" type="line"/>
      <point x="389.0" y="1143.0" type="line"/>
      <point x="814.0" y="1143.0" type="line"/>
      <point x="810.0" y="1127.0" type="line"/>
      <point x="384.0" y="1127.0" type="line"/>
      <point x="382.0" y="1127.0" type="line"/>
    </contour>
    <contour>
      <point x="896.0" y="1239.0" type="line"/>
      <point x="826.0" y="1239.0" type="line"/>
      <point x="824.0" y="1239.0" type="line"/>
      <point x="842.0" y="1239.0" type="line"/>
      <point x="846.0" y="1255.0" type="line"/>
      <point x="834.0" y="1255.0" type="line"/>
      <point x="836.0" y="1255.0" type="line"/>
      <point x="900.0" y="1255.0" type="line"/>
    </contour>
    <contour>
      <point x="294.0" y="1239.0" type="line"/>
      <point x="298.0" y="1255.0" type="line"/>
      <point x="419.0" y="1255.0" type="line"/>
      <point x="421.0" y="1255.0" type="line"/>
      <point x="846.0" y="1255.0" type="line"/>
      <point x="842.0" y="1239.0" type="line"/>
      <point x="416.0" y="1239.0" type="line"/>
      <point x="414.0" y="1239.0" type="line"/>
    </contour>
    <contour>
      <point x="-11.0" y="0.0" type="line"/>
      <point x="-13.0" y="16.0" type="line"/>
      <point x="89.0" y="36.0" type="line"/>
      <point x="256.0" y="796.0" type="line"/>
      <point x="409.0" y="1457.0" type="line"/>
      <point x="282.0" y="1484.0" type="line"/>
      <point x="284.0" y="1500.0" type="line"/>
      <point x="573.0" y="1500.0" type="line" smooth="yes"/>
      <point x="765.0" y="1501.0"/>
      <point x="890.0" y="1342.0"/>
      <point x="873.0" y="1156.0" type="qcurve" smooth="yes"/>
      <point x="854.0" y="953.0"/>
      <point x="661.0" y="803.0"/>
      <point x="456.0" y="803.0" type="qcurve" smooth="yes"/>
      <point x="425.0" y="803.0"/>
      <point x="329.0" y="829.0"/>
      <point x="296.0" y="850.0" type="qcurve"/>
      <point x="296.0" y="881.0" type="line"/>
      <point x="334.0" y="857.0"/>
      <point x="433.0" y="831.0"/>
      <point x="451.0" y="831.0" type="qcurve" smooth="yes"/>
      <point x="603.0" y="831.0"/>
      <point x="753.0" y="936.0"/>
      <point x="782.0" y="1126.0" type="qcurve" smooth="yes"/>
      <point x="810.0" y="1311.0"/>
      <point x="698.0" y="1474.0"/>
      <point x="536.0" y="1474.0" type="qcurve" smooth="yes"/>
      <point x="509.0" y="1474.0" type="line"/>
      <point x="485.0" y="1457.0" type="line"/>
      <point x="336.0" y="764.0" type="line"/>
      <point x="177.0" y="35.0" type="line"/>
      <point x="317.0" y="16.0" type="line"/>
      <point x="313.0" y="0.0" type="line"/>
    </contour>
  </outline>
</glyph>
<glyph name="cedi" format="2">
  <advance width="818"/>
  <unicode hex="20B5"/>
  <outline>
    <contour>
      <point x="191.0" y="809.0" type="qcurve" smooth="yes"/>
      <point x="261.0" y="1149.0"/>
      <point x="552.0" y="1465.0"/>
      <point x="718.0" y="1437.0" type="qcurve" smooth="yes"/>
      <point x="864.0" y="1412.0"/>
      <point x="917.0" y="1173.0"/>
      <point x="898.0" y="992.0" type="qcurve"/>
      <point x="834.0" y="992.0" type="line"/>
      <point x="842.0" y="1148.0"/>
      <point x="802.0" y="1381.0"/>
      <point x="716.0" y="1411.0" type="qcurve" smooth="yes"/>
      <point x="581.0" y="1454.0"/>
      <point x="308.0" y="1068.0"/>
      <point x="255.0" y="819.0" type="qcurve" smooth="yes"/>
      <point x="193.0" y="542.0"/>
      <point x="251.0" y="160.0"/>
      <point x="416.0" y="126.0" type="qcurve" smooth="yes"/>
      <point x="506.0" y="102.0"/>
      <point x="722.0" y="233.0"/>
      <point x="801.0" y="371.0" type="qcurve"/>
      <point x="816.0" y="371.0" type="line"/>
      <point x="830.0" y="356.0" type="line"/>
      <point x="728.0" y="183.0"/>
      <point x="528.0" y="57.0"/>
      <point x="425.0" y="78.0" type="qcurve" smooth="yes"/>
      <point x="242.0" y="110.0"/>
      <point x="131.0" y="513.0"/>
    </contour>
    <contour>
      <point x="396.0" y="-12.0" type="line"/>
      <point x="431.0" y="112.0" type="line"/>
      <point x="426.0" y="112.0" type="line"/>
      <point x="594.0" y="849.0" type="line"/>
      <point x="584.0" y="840.0" type="line"/>
      <point x="414.0" y="94.0" type="line"/>
      <point x="409.0" y="95.0" type="line"/>
      <point x="381.0" y="-10.0" type="line"/>
    </contour>
    <contour>
      <point x="761.0" y="1566.0" type="line"/>
      <point x="748.0" y="1566.0" type="line"/>
      <point x="719.0" y="1457.0" type="line"/>
      <point x="722.0" y="1457.0" type="line"/>
      <point x="584.0" y="840.0" type="line"/>
      <point x="594.0" y="849.0" type="line"/>
      <point x="728.0" y="1456.0" type="line"/>
      <point x="733.0" y="1456.0" type="line"/>
    </contour>
  </outline>
</glyph>
<glyph name="minus" format="2">
  <advance width="685"/>
  <unicode hex="2212"/>
  <outline>
    <contour>
      <point x="74.0" y="625.0" type="line"/>
      <point x="74.0" y="639.0" type="line"/>
      <point x="673.0" y="639.0" type="line"/>
      <point x="673.0" y="625.0" type="line"/>
    </contour>
  </outline>
</glyph>
<glyph name="divisionslash" format="2">
  <advance width="369"/>
  <unicode hex="2215"/>
  <outline>
    <contour>
      <point x="-126.0" y="-138.0" type="line"/>
      <point x="486.6056338028169" y="1535.9577464788733" type="line"/>
      <point x="487.09859154929575" y="1543.0140845070423" type="line"/>
      <point x="-124.87323943661971" y="-131.0" type="line"/>
    </contour>
  </outline>
</glyph>
<glyph name="fi" format="2">
  <advance width="618"/>
  <unicode hex="FB01"/>
  <outline>
    <contour>
      <point x="61.0" y="193.0" type="qcurve" smooth="yes"/>
      <point x="173.0" y="859.0" type="line"/>
      <point x="169.0" y="857.0" type="line"/>
      <point x="216.0" y="1107.0" type="line" smooth="yes"/>
      <point x="259.0" y="1335.0"/>
      <point x="405.0" y="1550.0"/>
      <point x="500.0" y="1550.0" type="qcurve" smooth="yes"/>
      <point x="569.0" y="1550.0"/>
      <point x="640.0" y="1493.0"/>
      <point x="640.0" y="1424.0" type="qcurve" smooth="yes"/>
      <point x="640.0" y="1378.0"/>
      <point x="606.0" y="1330.0"/>
      <point x="580.0" y="1330.0" type="qcurve" smooth="yes"/>
      <point x="567.0" y="1330.0"/>
      <point x="557.0" y="1344.0"/>
      <point x="545.0" y="1471.0" type="qcurve" smooth="yes"/>
      <point x="542.0" y="1500.0"/>
      <point x="526.0" y="1533.0"/>
      <point x="474.0" y="1533.0" type="qcurve" smooth="yes"/>
      <point x="405.0" y="1533.0"/>
      <point x="326.0" y="1341.0"/>
      <point x="275.0" y="1060.0" type="qcurve" smooth="yes"/>
      <point x="229.0" y="858.0" type="line"/>
      <point x="228.0" y="858.0" type="line"/>
      <point x="180.0" y="520.0" type="line" smooth="yes"/>
      <point x="111.0" y="15.0"/>
      <point x="-126.0" y="-496.0"/>
      <point x="-343.0" y="-496.0" type="qcurve"/>
      <point x="-421.0" y="-474.0" type="line"/>
      <point x="-417.0" y="-488.0" type="line"/>
      <point x="-360.0" y="-494.0" type="line" smooth="yes"/>
      <point x="-159.0" y="-500.0"/>
      <point x="3.0" y="-175.0"/>
    </contour>
    <contour>
      <point x="44.0" y="842.0" type="line"/>
      <point x="45.0" y="856.0" type="line"/>
      <point x="183.0" y="867.0" type="line"/>
      <point x="343.0" y="883.0" type="line"/>
      <point x="343.0" y="868.0" type="line"/>
      <point x="208.0" y="851.0" type="line"/>
      <point x="182.0" y="847.0" type="line"/>
    </contour>
    <contour>
      <point x="348.0" y="-6.0" type="line"/>
      <point x="313.0" y="82.0" type="line"/>
      <point x="424.0" y="547.0" type="line"/>
      <point x="482.0" y="866.0" type="line"/>
      <point x="291.0" y="876.0" type="line"/>
      <point x="292.0" y="856.0" type="line"/>
      <point x="517.0" y="910.0" type="line"/>
      <point x="510.0" y="910.0" type="line"/>
      <point x="499.0" y="890.0" type="line"/>
      <point x="484.0" y="759.0" type="line"/>
      <point x="354.0" y="60.0" type="line"/>
      <point x="516.0" y="79.0" type="line"/>
      <point x="516.0" y="66.0" type="line"/>
    </contour>
  </outline>
</glyph>
<glyph name="f_f_l" format="2">
  <advance width="849"/>
  <unicode hex="FB04"/>
  <outline>
    <contour>
      <point x="-415.0" y="-474.0" type="line" smooth="yes"/>
      <point x="-413.0" y="-488.0" type="line"/>
      <point x="-356.0" y="-494.0" type="line" smooth="yes"/>
      <point x="-155.0" y="-500.0"/>
      <point x="7.0" y="-175.0"/>
      <point x="73.0" y="240.0" type="qcurve" smooth="yes"/>
      <point x="177.0" y="859.0" type="line"/>
      <point x="178.0" y="862.0" type="line"/>
      <point x="220.0" y="1107.0" type="line" smooth="yes"/>
      <point x="259.0" y="1335.0"/>
      <point x="413.0" y="1505.0"/>
      <point x="475.0" y="1505.0" type="qcurve" smooth="yes"/>
      <point x="534.0" y="1505.0"/>
      <point x="575.0" y="1446.0"/>
      <point x="575.0" y="1377.0" type="qcurve" smooth="yes"/>
      <point x="575.0" y="1327.0"/>
      <point x="549.0" y="1275.0"/>
      <point x="527.0" y="1275.0" type="qcurve" smooth="yes"/>
      <point x="515.0" y="1275.0"/>
      <point x="504.0" y="1289.0"/>
      <point x="493.0" y="1416.0" type="qcurve" smooth="yes"/>
      <point x="491.0" y="1445.0"/>
      <point x="485.0" y="1488.0"/>
      <point x="456.0" y="1488.0" type="qcurve" smooth="yes"/>
      <point x="416.0" y="1488.0"/>
      <point x="347.0" y="1339.0"/>
      <point x="283.0" y="1060.0" type="qcurve" smooth="yes"/>
      <point x="232.0" y="861.0" type="line"/>
      <point x="231.0" y="858.0" type="line"/>
      <point x="193.0" y="566.0" type="line" smooth="yes"/>
      <point x="117.0" y="15.0"/>
      <point x="-122.0" y="-496.0"/>
      <point x="-339.0" y="-496.0" type="qcurve"/>
    </contour>
    <contour>
      <point x="-109.0" y="-364.0" type="line" smooth="yes"/>
      <point x="-108.0" y="-379.0" type="line"/>
      <point x="-51.0" y="-385.0" type="line" smooth="yes"/>
      <point x="150.0" y="-391.0"/>
      <point x="311.0" y="-66.0"/>
      <point x="378.0" y="349.0" type="qcurve" smooth="yes"/>
      <point x="467.0" y="869.0" type="line"/>
      <point x="468.0" y="874.0" type="line"/>
      <point x="539.0" y="1286.0" type="line" smooth="yes"/>
      <point x="550.0" y="1381.0"/>
      <point x="679.0" y="1550.0"/>
      <point x="754.0" y="1550.0" type="qcurve" smooth="yes"/>
      <point x="823.0" y="1550.0"/>
      <point x="864.0" y="1494.0"/>
      <point x="864.0" y="1425.0" type="qcurve" smooth="yes"/>
      <point x="864.0" y="1375.0"/>
      <point x="833.0" y="1323.0"/>
      <point x="807.0" y="1323.0" type="qcurve" smooth="yes"/>
      <point x="794.0" y="1323.0"/>
      <point x="781.0" y="1337.0"/>
      <point x="769.0" y="1464.0" type="qcurve" smooth="yes"/>
      <point x="766.0" y="1493.0"/>
      <point x="768.0" y="1533.0"/>
      <point x="733.0" y="1533.0" type="qcurve" smooth="yes"/>
      <point x="684.0" y="1533.0"/>
      <point x="632.0" y="1385.0"/>
      <point x="598.0" y="1239.0" type="qcurve" smooth="yes"/>
      <point x="523.0" y="872.0" type="line"/>
      <point x="522.0" y="868.0" type="line"/>
      <point x="498.0" y="675.0" type="line" smooth="yes"/>
      <point x="426.0" y="123.0"/>
      <point x="183.0" y="-387.0"/>
      <point x="-34.0" y="-387.0" type="qcurve"/>
    </contour>
    <contour>
      <point x="48.0" y="842.0" type="line"/>
      <point x="49.0" y="856.0" type="line"/>
      <point x="187.0" y="867.0" type="line"/>
      <point x="785.0" y="875.0" type="line"/>
      <point x="785.0" y="864.0" type="line"/>
      <point x="212.0" y="851.0" type="line"/>
      <point x="186.0" y="847.0" type="line"/>
    </contour>
    <contour>
      <point x="629.0" y="-13.0" type="line"/>
      <point x="591.0" y="-8.0" type="line"/>
      <point x="707.0" y="604.0" type="line"/>
      <point x="875.0" y="1551.0" type="line"/>
      <point x="760.0" y="1534.0" type="line"/>
      <point x="761.0" y="1538.0" type="line"/>
      <point x="928.0" y="1588.0" type="line"/>
      <point x="919.0" y="1589.0" type="line"/>
      <point x="730.0" y="588.0" type="line"/>
      <point x="627.0" y="64.0" type="line"/>
      <point x="796.0" y="89.0" type="line"/>
      <point x="796.0" y="76.0" type="line"/>
    </contour>
  </outline>
</glyph>
<glyph name="brevecombstack.case" format="2">
  <advance width="896"/>
  <outline>
    <contour>
      <point x="708.0" y="1694.0" type="qcurve"/>
      <point x="706.0" y="1696.0" type="line"/>
      <point x="669.0" y="1614.0"/>
      <point x="578.0" y="1547.0"/>
      <point x="515.0" y="1547.0" type="qcurve" smooth="yes"/>
      <point x="443.0" y="1547.0"/>
      <point x="391.0" y="1618.0"/>
      <point x="393.0" y="1708.0" type="qcurve"/>
      <point x="388.0" y="1704.0" type="line"/>
      <point x="405.0" y="1607.0"/>
      <point x="465.0" y="1569.0"/>
      <point x="519.0" y="1569.0" type="qcurve" smooth="yes"/>
      <point x="569.0" y="1569.0"/>
      <point x="668.0" y="1614.0"/>
    </contour>
  </outline>
</glyph>
<glyph name="caroncomb.alt" format="2">
  <advance width="896"/>
  <outline>
    <contour>
      <point x="488.0" y="1036.0" type="line"/>
      <point x="582.0" y="1408.0" type="line" smooth="yes"/>
      <point x="595.0" y="1468.0"/>
      <point x="609.0" y="1495.0"/>
      <point x="620.0" y="1499.0" type="qcurve" smooth="yes"/>
      <point x="627.0" y="1503.0"/>
      <point x="641.0" y="1497.0"/>
      <point x="644.0" y="1487.0" type="qcurve" smooth="yes"/>
      <point x="648.0" y="1481.0"/>
      <point x="651.0" y="1455.0"/>
      <point x="645.0" y="1428.0" type="qcurve" smooth="yes"/>
      <point x="504.0" y="1039.0" type="line"/>
    </contour>
  </outline>
</glyph>
<glyph name="circumflexcombstack.case" format="2">
  <advance width="896"/>
  <outline>
    <contour>
      <point x="754.0" y="1879.0" type="qcurve" smooth="yes"/>
      <point x="761.0" y="1876.0"/>
      <point x="791.0" y="1822.0"/>
      <point x="805.0" y="1775.0" type="qcurve" smooth="yes"/>
      <point x="859.0" y="1558.0" type="line"/>
      <point x="841.0" y="1552.0" type="line"/>
      <point x="748.0" y="1823.0" type="line"/>
      <point x="429.0" y="1552.0" type="line"/>
      <point x="417.0" y="1563.0" type="line"/>
      <point x="640.0" y="1780.0" type="line" smooth="yes"/>
      <point x="688.0" y="1828.0"/>
      <point x="748.0" y="1882.0"/>
    </contour>
  </outline>
</glyph>
<glyph name="commaaccentcomb.case" format="2">
  <advance width="896"/>
  <outline>
    <contour>
      <point x="146.83098591549296" y="-454.14084507042253" type="qcurve"/>
      <point x="156.0" y="-468.0" type="line"/>
      <point x="254.0" y="-407.0"/>
      <point x="360.0" y="-300.0"/>
      <point x="360.0" y="-234.0" type="qcurve" smooth="yes"/>
      <point x="361.0" y="-207.0"/>
      <point x="331.0" y="-182.0"/>
      <point x="300.0" y="-182.0" type="qcurve" smooth="yes"/>
      <point x="272.0" y="-182.0"/>
      <point x="233.0" y="-220.0"/>
      <point x="233.0" y="-252.0" type="qcurve" smooth="yes"/>
      <point x="233.0" y="-279.0"/>
      <point x="269.28169014084506" y="-313.943661971831"/>
      <point x="291.1267605633803" y="-315.63380281690144" type="qcurve"/>
      <point x="281.46478873239437" y="-341.90140845070425"/>
      <point x="215.83098591549296" y="-407.14084507042253"/>
    </contour>
  </outline>
</glyph>
<glyph name="diagonalbarl" format="2">
  <advance width="629"/>
  <outline>
    <contour>
      <point x="327.0" y="743.0" type="line"/>
      <point x="605.0" y="901.0" type="line"/>
      <point x="608.0" y="889.0" type="line"/>
      <point x="333.0" y="737.0" type="line"/>
      <point x="26.0" y="566.0" type="line"/>
      <point x="21.0" y="577.0" type="line"/>
    </contour>
  </outline>
</glyph>
<glyph name="dieresisbelowcomb" format="2">
  <advance width="896"/>
  <outline>
    <contour>
      <point x="224.0" y="-110.0" type="qcurve" smooth="yes"/>
      <point x="224.0" y="-90.0"/>
      <point x="256.0" y="-57.0"/>
      <point x="277.0" y="-57.0" type="qcurve" smooth="yes"/>
      <point x="301.0" y="-57.0"/>
      <point x="332.0" y="-87.0"/>
      <point x="332.0" y="-110.0" type="qcurve" smooth="yes"/>
      <point x="332.0" y="-132.0"/>
      <point x="298.0" y="-164.0"/>
      <point x="277.0" y="-164.0" type="qcurve" smooth="yes"/>
      <point x="253.0" y="-164.0"/>
      <point x="224.0" y="-133.0"/>
    </contour>
    <contour>
      <point x="126.0" y="-110.0" type="qcurve" smooth="yes"/>
      <point x="126.0" y="-90.0"/>
      <point x="160.0" y="-57.0"/>
      <point x="181.0" y="-57.0" type="qcurve" smooth="yes"/>
      <point x="205.0" y="-57.0"/>
      <point x="235.0" y="-87.0"/>
      <point x="235.0" y="-110.0" type="qcurve" smooth="yes"/>
      <point x="235.0" y="-132.0"/>
      <point x="202.0" y="-164.0"/>
      <point x="181.0" y="-164.0" type="qcurve" smooth="yes"/>
      <point x="157.0" y="-164.0"/>
      <point x="126.0" y="-133.0"/>
    </contour>
  </outline>
</glyph>
<glyph name="dieresiscomb.case" format="2">
  <advance width="896"/>
  <outline>
    <contour>
      <point x="365.0" y="1639.0" type="qcurve" smooth="yes"/>
      <point x="365.0" y="1669.0"/>
      <point x="398.0" y="1701.0"/>
      <point x="430.0" y="1701.0" type="qcurve" smooth="yes"/>
      <point x="460.0" y="1701.0"/>
      <point x="493.0" y="1667.0"/>
      <point x="493.0" y="1639.0" type="qcurve" smooth="yes"/>
      <point x="493.0" y="1608.0"/>
      <point x="462.0" y="1576.0"/>
      <point x="430.0" y="1576.0" type="qcurve" smooth="yes"/>
      <point x="399.0" y="1576.0"/>
      <point x="365.0" y="1610.0"/>
    </contour>
    <contour>
      <point x="477.0" y="1639.0" type="qcurve" smooth="yes"/>
      <point x="477.0" y="1669.0"/>
      <point x="508.0" y="1701.0"/>
      <point x="540.0" y="1701.0" type="qcurve" smooth="yes"/>
      <point x="570.0" y="1701.0"/>
      <point x="604.0" y="1667.0"/>
      <point x="604.0" y="1639.0" type="qcurve" smooth="yes"/>
      <point x="604.0" y="1608.0"/>
      <point x="572.0" y="1576.0"/>
      <point x="540.0" y="1576.0" type="qcurve" smooth="yes"/>
      <point x="509.0" y="1576.0"/>
      <point x="477.0" y="1610.0"/>
    </contour>
  </outline>
</glyph>
<glyph name="dieresiscombstack.case" format="2">
  <advance width="896"/>
  <outline>
    <contour>
      <point x="365.0" y="1689.0" type="qcurve" smooth="yes"/>
      <point x="365.0" y="1719.0"/>
      <point x="398.0" y="1751.0"/>
      <point x="430.0" y="1751.0" type="qcurve" smooth="yes"/>
      <point x="460.0" y="1751.0"/>
      <point x="493.0" y="1717.0"/>
      <point x="493.0" y="1689.0" type="qcurve" smooth="yes"/>
      <point x="493.0" y="1658.0"/>
      <point x="462.0" y="1626.0"/>
      <point x="430.0" y="1626.0" type="qcurve" smooth="yes"/>
      <point x="399.0" y="1626.0"/>
      <point x="365.0" y="1660.0"/>
    </contour>
    <contour>
      <point x="477.0" y="1689.0" type="qcurve" smooth="yes"/>
      <point x="477.0" y="1719.0"/>
      <point x="508.0" y="1751.0"/>
      <point x="540.0" y="1751.0" type="qcurve" smooth="yes"/>
      <point x="570.0" y="1751.0"/>
      <point x="604.0" y="1717.0"/>
      <point x="604.0" y="1689.0" type="qcurve" smooth="yes"/>
      <point x="604.0" y="1658.0"/>
      <point x="572.0" y="1626.0"/>
      <point x="540.0" y="1626.0" type="qcurve" smooth="yes"/>
      <point x="509.0" y="1626.0"/>
      <point x="477.0" y="1660.0"/>
    </contour>
  </outline>
</glyph>
<glyph name="dotaccentcombstack.case" format="2">
  <advance width="896"/>
  <outline>
    <contour>
      <point x="462.0" y="1660.0" type="qcurve" smooth="yes"/>
      <point x="462.0" y="1692.0"/>
      <point x="492.0" y="1723.0"/>
      <point x="526.0" y="1723.0" type="qcurve" smooth="yes"/>
      <point x="558.0" y="1723.0"/>
      <point x="590.0" y="1690.0"/>
      <point x="590.0" y="1660.0" type="qcurve" smooth="yes"/>
      <point x="590.0" y="1631.0"/>
      <point x="564.0" y="1596.0"/>
      <point x="526.0" y="1596.0" type="qcurve" smooth="yes"/>
      <point x="496.0" y="1596.0"/>
      <point x="462.0" y="1631.0"/>
    </contour>
  </outline>
</glyph>
<glyph name="engn" format="2">
  <advance width="632"/>
  <outline>
    <contour>
      <point x="-8.0" y="2.0" type="line"/>
      <point x="19.0" y="62.0" type="line"/>
      <point x="113.0" y="490.0" type="line"/>
      <point x="175.0" y="865.0" type="line"/>
      <point x="28.0" y="867.0" type="line"/>
      <point x="28.0" y="882.0" type="line"/>
      <point x="197.0" y="920.0" type="line"/>
      <point x="223.0" y="906.0" type="line"/>
      <point x="179.0" y="636.0" type="line"/>
      <point x="177.0" y="614.0" type="line"/>
      <point x="80.0" y="90.0" type="line"/>
      <point x="57.0" y="17.0" type="line"/>
    </contour>
    <contour>
      <point x="197.0" y="668.0" type="line"/>
      <point x="263.0" y="795.0"/>
      <point x="409.0" y="931.0"/>
      <point x="463.0" y="931.0" type="qcurve" smooth="yes"/>
      <point x="544.0" y="931.0"/>
      <point x="559.0" y="765.0"/>
      <point x="541.0" y="682.0" type="qcurve" smooth="yes"/>
      <point x="402.0" y="0.0" type="line"/>
      <point x="357.0" y="0.0" type="line"/>
      <point x="507.0" y="793.0" type="line" smooth="yes"/>
      <point x="511.0" y="819.0"/>
      <point x="475.0" y="906.0"/>
      <point x="431.0" y="906.0" type="qcurve" smooth="yes"/>
      <point x="419.0" y="906.0"/>
      <point x="284.0" y="806.0"/>
      <point x="210.0" y="691.0" type="qcurve"/>
    </contour>
  </outline>
</glyph>
<glyph name="gravecomb.case" format="2">
  <advance width="896"/>
  <outline>
    <contour>
      <point x="371.0" y="1718.0" type="qcurve" smooth="yes"/>
      <point x="538.0" y="1575.0" type="line"/>
      <point x="544.0" y="1578.0" type="line"/>
      <point x="392.0" y="1734.0" type="line" smooth="yes"/>
      <point x="374.0" y="1755.0"/>
      <point x="356.0" y="1774.0"/>
      <point x="351.0" y="1774.0" type="qcurve" smooth="yes"/>
      <point x="347.0" y="1774.0"/>
      <point x="341.0" y="1769.0"/>
      <point x="341.0" y="1762.0" type="qcurve" smooth="yes"/>
      <point x="341.0" y="1756.0"/>
      <point x="358.0" y="1730.0"/>
    </contour>
  </outline>
</glyph>
<glyph name="hookabovecomb.case" format="2">
  <advance width="845"/>
  <outline>
    <contour>
      <point x="400.0" y="1633.0" type="line"/>
      <point x="443.0" y="1769.0" type="line"/>
      <point x="451.0" y="1762.0" type="line"/>
      <point x="479.0" y="1756.0"/>
      <point x="544.0" y="1751.0"/>
      <point x="577.0" y="1751.0" type="qcurve" smooth="yes"/>
      <point x="680.0" y="1751.0"/>
      <point x="770.0" y="1822.0"/>
      <point x="773.0" y="1878.0" type="qcurve" smooth="yes"/>
      <point x="776.0" y="1932.0"/>
      <point x="690.0" y="1965.0"/>
      <point x="621.0" y="1965.0" type="qcurve" smooth="yes"/>
      <point x="587.0" y="1965.0"/>
      <point x="528.0" y="1950.0"/>
      <point x="474.0" y="1932.0" type="qcurve"/>
      <point x="473.0" y="1951.0" type="line"/>
      <point x="480.0" y="1956.0"/>
      <point x="619.0" y="1988.0"/>
      <point x="661.0" y="1988.0" type="qcurve" smooth="yes"/>
      <point x="765.0" y="1988.0"/>
      <point x="831.0" y="1939.0"/>
      <point x="833.0" y="1896.0" type="qcurve" smooth="yes"/>
      <point x="834.0" y="1824.0"/>
      <point x="722.0" y="1729.0"/>
      <point x="610.0" y="1729.0" type="qcurve" smooth="yes"/>
      <point x="577.0" y="1729.0"/>
      <point x="498.0" y="1738.0"/>
      <point x="476.0" y="1742.0" type="qcurve"/>
      <point x="434.0" y="1633.0" type="line"/>
    </contour>
  </outline>
</glyph>
<glyph name="hookabovecombstack.case" format="2">
  <advance width="845"/>
  <outline>
    <contour>
      <point x="434.0" y="1660.0" type="line"/>
      <point x="459.0" y="1770.0" type="line"/>
      <point x="464.0" y="1749.0" type="line"/>
      <point x="491.0" y="1743.0"/>
      <point x="545.0" y="1737.0"/>
      <point x="578.0" y="1737.0" type="qcurve" smooth="yes"/>
      <point x="679.0" y="1737.0"/>
      <point x="768.0" y="1808.0"/>
      <point x="772.0" y="1863.0" type="qcurve" smooth="yes"/>
      <point x="776.0" y="1916.0"/>
      <point x="687.0" y="1949.0"/>
      <point x="620.0" y="1949.0" type="qcurve" smooth="yes"/>
      <point x="597.0" y="1949.0"/>
      <point x="544.0" y="1933.0"/>
      <point x="493.0" y="1917.0" type="qcurve"/>
      <point x="493.0" y="1933.0" type="line"/>
      <point x="508.0" y="1939.0"/>
      <point x="618.0" y="1969.0"/>
      <point x="658.0" y="1969.0" type="qcurve" smooth="yes"/>
      <point x="758.0" y="1969.0"/>
      <point x="823.0" y="1922.0"/>
      <point x="825.0" y="1880.0" type="qcurve" smooth="yes"/>
      <point x="826.0" y="1810.0"/>
      <point x="718.0" y="1718.0"/>
      <point x="609.0" y="1718.0" type="qcurve" smooth="yes"/>
      <point x="577.0" y="1718.0"/>
      <point x="498.0" y="1725.0"/>
      <point x="470.0" y="1731.0" type="qcurve"/>
      <point x="448.0" y="1660.0" type="line"/>
    </contour>
  </outline>
</glyph>
<glyph name="hungarumlautcomb.case" format="2">
  <advance width="896"/>
  <outline>
    <contour>
      <point x="736.0" y="1811.0" type="qcurve" smooth="yes"/>
      <point x="739.0" y="1803.0"/>
      <point x="724.0" y="1769.0"/>
      <point x="712.0" y="1753.0" type="qcurve" smooth="yes"/>
      <point x="583.0" y="1605.0" type="line"/>
      <point x="577.0" y="1593.0" type="line"/>
      <point x="674.0" y="1765.0" type="line" smooth="yes"/>
      <point x="681.0" y="1785.0"/>
      <point x="710.0" y="1819.0"/>
      <point x="717.0" y="1822.0" type="qcurve" smooth="yes"/>
      <point x="723.0" y="1825.0"/>
      <point x="732.0" y="1820.0"/>
    </contour>
    <contour>
      <point x="855.0" y="1813.0" type="qcurve" smooth="yes"/>
      <point x="858.0" y="1805.0"/>
      <point x="843.0" y="1772.0"/>
      <point x="832.0" y="1756.0" type="qcurve" smooth="yes"/>
      <point x="703.0" y="1607.0" type="line"/>
      <point x="697.0" y="1595.0" type="line"/>
      <point x="794.0" y="1768.0" type="line" smooth="yes"/>
      <point x="801.0" y="1788.0"/>
      <point x="830.0" y="1821.0"/>
      <point x="837.0" y="1824.0" type="qcurve" smooth="yes"/>
      <point x="843.0" y="1827.0"/>
      <point x="852.0" y="1822.0"/>
    </contour>
  </outline>
</glyph>
<glyph name="macronbelowcomb.case" format="2">
  <advance width="896"/>
  <outline>
    <contour>
      <point x="-33.04225352112675" y="-276.23943661971833" type="line"/>
      <point x="-21.0" y="-222.0" type="line"/>
      <point x="471.0" y="-222.0" type="line"/>
      <point x="458.9577464788732" y="-276.23943661971833" type="line"/>
    </contour>
  </outline>
</glyph>
<glyph name="ogonekcomb.case" format="2">
  <advance width="896"/>
  <outline>
    <contour>
      <point x="211.0" y="-243.0" type="qcurve" smooth="yes"/>
      <point x="203.0" y="-303.0"/>
      <point x="271.0" y="-371.0"/>
      <point x="325.0" y="-371.0" type="qcurve" smooth="yes"/>
      <point x="378.0" y="-371.0"/>
      <point x="494.0" y="-288.0"/>
      <point x="527.0" y="-234.0" type="qcurve"/>
      <point x="531.0" y="-233.0" type="line"/>
      <point x="500.0" y="-290.0"/>
      <point x="379.0" y="-376.0"/>
      <point x="329.0" y="-377.0" type="qcurve" smooth="yes"/>
      <point x="251.0" y="-378.0"/>
      <point x="186.0" y="-304.0"/>
      <point x="196.0" y="-249.0" type="qcurve" smooth="yes"/>
      <point x="209.0" y="-179.0"/>
      <point x="330.0" y="-56.0"/>
      <point x="398.0" y="-10.0" type="qcurve" smooth="yes"/>
      <point x="420.0" y="6.0" type="line"/>
      <point x="422.0" y="-2.0" type="line"/>
      <point x="404.0" y="-15.0" type="line" smooth="yes"/>
      <point x="320.0" y="-72.0"/>
      <point x="222.0" y="-179.0"/>
    </contour>
  </outline>
</glyph>
<glyph name="tildecomb.case" format="2">
  <advance width="896"/>
  <outline>
    <contour>
      <point x="300.0" y="1668.0" type="line"/>
      <point x="317.0" y="1715.0"/>
      <point x="356.0" y="1776.0"/>
      <point x="393.0" y="1776.0" type="qcurve" smooth="yes"/>
      <point x="417.0" y="1776.0"/>
      <point x="459.0" y="1747.0"/>
      <point x="488.0" y="1716.0" type="qcurve" smooth="yes"/>
      <point x="515.0" y="1688.0"/>
      <point x="560.0" y="1650.0"/>
      <point x="580.0" y="1650.0" type="qcurve" smooth="yes"/>
      <point x="618.0" y="1650.0"/>
      <point x="670.0" y="1707.0"/>
      <point x="682.0" y="1732.0" type="qcurve"/>
      <point x="674.0" y="1718.0" type="line"/>
      <point x="656.0" y="1664.0"/>
      <point x="591.0" y="1600.0"/>
      <point x="554.0" y="1600.0" type="qcurve" smooth="yes"/>
      <point x="528.0" y="1600.0"/>
      <point x="473.0" y="1644.0"/>
      <point x="455.0" y="1660.0" type="qcurve" smooth="yes"/>
      <point x="437.0" y="1676.0"/>
      <point x="393.0" y="1727.0"/>
      <point x="372.0" y="1727.0" type="qcurve" smooth="yes"/>
      <point x="349.0" y="1727.0"/>
      <point x="317.0" y="1689.0"/>
      <point x="297.0" y="1649.0" type="qcurve"/>
    </contour>
  </outline>
</glyph>
<glyph name="two.lf" format="2">
  <advance width="869"/>
  <outline>
    <contour>
      <point x="18.0" y="12.0" type="qcurve"/>
      <point x="7.0" y="23.0" type="line"/>
      <point x="133.0" y="136.0" type="line" smooth="yes"/>
      <point x="509.0" y="473.0"/>
      <point x="838.0" y="990.0"/>
      <point x="848.0" y="1144.0" type="qcurve" smooth="yes"/>
      <point x="853.0" y="1295.0"/>
      <point x="710.0" y="1448.0"/>
      <point x="565.0" y="1448.0" type="qcurve" smooth="yes"/>
      <point x="453.0" y="1449.0"/>
      <point x="279.0" y="1303.0"/>
      <point x="243.0" y="1233.0" type="qcurve"/>
      <point x="243.0" y="1250.0" type="line"/>
      <point x="316.0" y="1386.0"/>
      <point x="485.0" y="1513.0"/>
      <point x="612.0" y="1513.0" type="qcurve" smooth="yes"/>
      <point x="730.0" y="1513.0"/>
      <point x="897.0" y="1362.0"/>
      <point x="897.0" y="1216.0" type="qcurve" smooth="yes"/>
      <point x="897.0" y="1001.0"/>
      <point x="486.0" y="429.0"/>
      <point x="175.0" y="141.0" type="qcurve"/>
      <point x="186.0" y="142.0" type="line"/>
      <point x="211.0" y="144.0"/>
      <point x="252.0" y="152.0"/>
      <point x="267.0" y="154.0" type="qcurve"/>
      <point x="394.0" y="127.0"/>
      <point x="578.854" y="84.363"/>
      <point x="706.0" y="51.0" type="qcurve"/>
      <point x="801.0" y="252.0" type="line"/>
      <point x="816.0" y="250.0" type="line"/>
      <point x="705.0" y="-26.0" type="line"/>
      <point x="511.0" y="39.0"/>
      <point x="306.0" y="105.0"/>
      <point x="228.0" y="110.0" type="qcurve" smooth="yes"/>
      <point x="150.0" y="114.0"/>
      <point x="69.0" y="58.0"/>
    </contour>
  </outline>
</glyph>
<glyph name="two.tab" format="2">
  <advance width="860"/>
  <outline>
    <contour>
      <point x="-34.0" y="12.0" type="qcurve"/>
      <point x="-45.0" y="23.0" type="line"/>
      <point x="81.0" y="136.0" type="line" smooth="yes"/>
      <point x="457.0" y="473.0"/>
      <point x="796.0" y="990.0"/>
      <point x="796.0" y="1144.0" type="qcurve" smooth="yes"/>
      <point x="796.0" y="1295.0"/>
      <point x="658.0" y="1448.0"/>
      <point x="513.0" y="1448.338028169014" type="qcurve" smooth="yes"/>
      <point x="401.0" y="1449.0"/>
      <point x="226.71830985915494" y="1303.3098591549297"/>
      <point x="191.1549295774648" y="1233.0704225352113" type="qcurve"/>
      <point x="191.0" y="1250.0" type="line"/>
      <point x="264.0" y="1386.0"/>
      <point x="433.0" y="1513.0"/>
      <point x="560.0" y="1513.0" type="qcurve" smooth="yes"/>
      <point x="678.0" y="1513.0"/>
      <point x="845.0" y="1362.0"/>
      <point x="845.0" y="1216.0" type="qcurve" smooth="yes"/>
      <point x="845.0" y="1035.0"/>
      <point x="643.0" y="606.0"/>
      <point x="123.0" y="141.0" type="qcurve"/>
      <point x="134.0" y="142.0" type="line"/>
      <point x="159.0" y="144.0"/>
      <point x="200.0" y="152.0"/>
      <point x="215.0" y="154.0" type="qcurve"/>
      <point x="306.0" y="135.0"/>
      <point x="527.3380281690141" y="83.73239436619718"/>
      <point x="654.3380281690141" y="50.732394366197184" type="qcurve"/>
      <point x="749.0" y="252.0" type="line"/>
      <point x="764.0" y="250.0" type="line"/>
      <point x="653.0" y="-26.0" type="line"/>
      <point x="459.0" y="39.0"/>
      <point x="255.0" y="105.0"/>
      <point x="177.0" y="110.0" type="qcurve" smooth="yes"/>
      <point x="99.0" y="114.0"/>
      <point x="18.0" y="58.0"/>
    </contour>
  </outline>
</glyph>
<glyph name="zero.lf" format="2">
  <advance width="824"/>
  <outline>
    <contour>
      <point x="177.0" y="885.0" type="qcurve" smooth="yes"/>
      <point x="264.0" y="1214.0"/>
      <point x="511.0" y="1538.0"/>
      <point x="694.0" y="1506.0" type="qcurve" smooth="yes"/>
      <point x="843.0" y="1473.0"/>
      <point x="922.0" y="997.0"/>
      <point x="852.0" y="697.0" type="qcurve" smooth="yes"/>
      <point x="775.0" y="376.0"/>
      <point x="509.0" y="-15.0"/>
      <point x="320.0" y="13.0" type="qcurve" smooth="yes"/>
      <point x="168.0" y="42.0"/>
      <point x="87.0" y="540.0"/>
    </contour>
    <contour>
      <point x="223.0" y="868.0" type="qcurve" smooth="yes"/>
      <point x="144.33802816901408" y="521.7605633802816"/>
      <point x="214.7605633802817" y="86.64788732394366"/>
      <point x="358.76056338028167" y="63.647887323943664" type="qcurve" smooth="yes"/>
      <point x="510.7605633802817" y="38.647887323943664"/>
      <point x="732.6901408450705" y="407.76056338028167"/>
      <point x="806.0" y="735.0" type="qcurve" smooth="yes"/>
      <point x="878.3098591549295" y="1070.5774647887324"/>
      <point x="804.2535211267606" y="1461.4507042253522"/>
      <point x="662.2535211267606" y="1485.4507042253522" type="qcurve" smooth="yes"/>
      <point x="518.2535211267606" y="1509.4507042253522"/>
      <point x="298.32394366197184" y="1198.2394366197184"/>
    </contour>
  </outline>
</glyph>
<glyph name="zero.tab" format="2">
  <advance width="860"/>
  <outline>
    <contour>
      <point x="164.0" y="905.0" type="qcurve" smooth="yes"/>
      <point x="254.0" y="1218.0"/>
      <point x="525.0" y="1539.0"/>
      <point x="688.0" y="1506.0" type="qcurve" smooth="yes"/>
      <point x="857.0" y="1473.0"/>
      <point x="933.0" y="976.0"/>
      <point x="853.0" y="677.0" type="qcurve" smooth="yes"/>
      <point x="772.0" y="385.0"/>
      <point x="483.0" y="-15.0"/>
      <point x="314.0" y="13.0" type="qcurve" smooth="yes"/>
      <point x="148.0" y="42.0"/>
      <point x="69.0" y="562.0"/>
    </contour>
    <contour>
      <point x="208.0" y="872.0" type="qcurve" smooth="yes"/>
      <point x="144.0" y="593.0"/>
      <point x="190.0" y="68.0"/>
      <point x="351.0" y="45.0" type="qcurve" smooth="yes"/>
      <point x="519.0" y="19.0"/>
      <point x="730.0" y="327.0"/>
      <point x="805.0" y="699.0" type="qcurve" smooth="yes"/>
      <point x="875.0" y="1041.0"/>
      <point x="812.0" y="1440.0"/>
      <point x="653.0" y="1465.0" type="qcurve" smooth="yes"/>
      <point x="493.0" y="1490.0"/>
      <point x="282.0" y="1206.0"/>
    </contour>
  </outline>
</glyph>
